<svg xmlns="http://www.w3.org/2000/svg" width="214.829" height="33.503" viewBox="0 0 214.829 33.503">
  <g id="Groupe_3" data-name="Groupe 3" transform="translate(12532.685 10162.143)">
    <g id="Groupe_2" data-name="Groupe 2" transform="translate(-113 2882.139)">
      <g id="cd" transform="translate(-12394.949 -13044)">
        <path id="Tracé_1" data-name="Tracé 1" d="M24.592,8.535A16.057,16.057,0,1,0,40.649,24.592,16.057,16.057,0,0,0,24.592,8.535ZM10.75,24.592a13.8,13.8,0,0,0,4.059,9.783A13.8,13.8,0,0,1,10.75,24.592Zm13.842,3.876a3.876,3.876,0,1,1,3.876-3.876A3.876,3.876,0,0,1,24.592,28.468Zm0,0" transform="translate(-7.82 -7.981)" fill="#f4f4f4"/>
        <path id="Tracé_2" data-name="Tracé 2" d="M200.142,196.266a3.876,3.876,0,1,0,3.876,3.876A3.876,3.876,0,0,0,200.142,196.266Zm0,6.091a2.215,2.215,0,1,1,2.215-2.215A2.215,2.215,0,0,1,200.142,202.356Zm0,0" transform="translate(-183.369 -183.531)" fill="rgba(0,0,0,0.1)"/>
        <path id="Tracé_3" data-name="Tracé 3" d="M226.3,224.082a2.215,2.215,0,1,1-2.215-2.215A2.215,2.215,0,0,1,226.3,224.082Zm0,0" transform="translate(-207.309 -207.471)" fill="#f4f4f4"/>
        <g id="Groupe_1" data-name="Groupe 1" transform="translate(0)">
          <path id="Tracé_4" data-name="Tracé 4" d="M16.611,0A16.611,16.611,0,1,0,33.222,16.611,16.611,16.611,0,0,0,16.611,0Zm0,32.114a15.5,15.5,0,1,1,15.5-15.5A15.5,15.5,0,0,1,16.611,32.114Zm0,0" transform="translate(0.162)" fill="#2c364a"/>
          <path id="Tracé_6" data-name="Tracé 6" d="M192.164,187.734a4.429,4.429,0,1,0,4.429,4.429A4.429,4.429,0,0,0,192.164,187.734Zm0,7.752a3.322,3.322,0,1,1,3.322-3.322A3.322,3.322,0,0,1,192.164,195.486Zm0,0" transform="translate(-175.391 -175.553)" fill="#2c364a"/>
          <path id="Tracé_7" data-name="Tracé 7" d="M216.1,213.332a2.769,2.769,0,1,0,2.769,2.769A2.769,2.769,0,0,0,216.1,213.332Zm0,4.43a1.661,1.661,0,1,1,1.661-1.661A1.661,1.661,0,0,1,216.1,217.762Zm0,0" transform="translate(-199.328 -199.49)" fill="#2c364a"/>
          <path id="Union_2" data-name="Union 2" d="M6.339,9.03h0A13.2,13.2,0,0,0,.143.967h0A.614.614,0,0,1,0,.561.557.557,0,0,1,.553,0,.681.681,0,0,1,.7.008h0A14.3,14.3,0,0,1,7.407,8.743h0a.583.583,0,0,1-.585.559A.569.569,0,0,1,6.339,9.03Z" transform="matrix(-0.966, -0.259, 0.259, -0.966, 7.155, 26.941)" fill="#2c364a"/>
        </g>
        <path id="Union_1" data-name="Union 1" d="M6.339,9.03h0A13.2,13.2,0,0,0,.143.967h0A.614.614,0,0,1,0,.561.557.557,0,0,1,.553,0,.681.681,0,0,1,.7.008h0A14.3,14.3,0,0,1,7.407,8.743h0a.583.583,0,0,1-.585.559A.569.569,0,0,1,6.339,9.03Z" transform="matrix(0.996, 0.087, -0.087, 0.996, 24.461, 5.092)" fill="#2c364a"/>
      </g>
    </g>
    <path id="Tracé_19" data-name="Tracé 19" d="M20.97-26.122a2.856,2.856,0,0,1-.709.81,1.586,1.586,0,0,1-.956.27,2.339,2.339,0,0,1-1.114-.326q-.6-.326-1.35-.731a11.2,11.2,0,0,0-1.721-.731,6.887,6.887,0,0,0-2.2-.326,4.745,4.745,0,0,0-3.184.911,3.1,3.1,0,0,0-1.046,2.464,2.27,2.27,0,0,0,.63,1.642,5.431,5.431,0,0,0,1.654,1.125,17.726,17.726,0,0,0,2.34.866q1.316.394,2.689.878a24.046,24.046,0,0,1,2.689,1.136,8.966,8.966,0,0,1,2.34,1.665,7.771,7.771,0,0,1,1.654,2.464,8.76,8.76,0,0,1,.63,3.5,11.4,11.4,0,0,1-.787,4.252A9.957,9.957,0,0,1,20.239-2.8a10.6,10.6,0,0,1-3.69,2.317A13.805,13.805,0,0,1,11.565.36,15.974,15.974,0,0,1,8.449.045,18.507,18.507,0,0,1,5.378-.844,17.81,17.81,0,0,1,2.588-2.2,11.855,11.855,0,0,1,.315-3.96l2.25-3.555a1.831,1.831,0,0,1,.7-.653,1.976,1.976,0,0,1,.968-.247,2.561,2.561,0,0,1,1.361.428q.686.427,1.552.945A12.634,12.634,0,0,0,9.135-6.1a7.466,7.466,0,0,0,2.655.427,5.054,5.054,0,0,0,3.217-.911,3.47,3.47,0,0,0,1.148-2.891,2.733,2.733,0,0,0-.63-1.868,4.867,4.867,0,0,0-1.654-1.192,15.237,15.237,0,0,0-2.329-.833q-1.3-.36-2.678-.8a19.589,19.589,0,0,1-2.677-1.08,8.45,8.45,0,0,1-2.329-1.687A7.9,7.9,0,0,1,2.2-19.541a10.363,10.363,0,0,1-.63-3.859A9.156,9.156,0,0,1,2.318-27,9.293,9.293,0,0,1,4.5-30.128a10.731,10.731,0,0,1,3.533-2.194,13.046,13.046,0,0,1,4.792-.821,17.971,17.971,0,0,1,2.936.236,15.435,15.435,0,0,1,2.711.7,14.889,14.889,0,0,1,2.4,1.1,11.048,11.048,0,0,1,1.991,1.451ZM95.445-16.4a17.619,17.619,0,0,1-1.226,6.615,15.943,15.943,0,0,1-3.454,5.321A15.838,15.838,0,0,1,85.4-.923,18.249,18.249,0,0,1,78.435.36,18.334,18.334,0,0,1,71.46-.923a15.935,15.935,0,0,1-5.389-3.544,15.857,15.857,0,0,1-3.465-5.321A17.618,17.618,0,0,1,61.38-16.4a17.618,17.618,0,0,1,1.226-6.615,15.735,15.735,0,0,1,3.465-5.31A16.02,16.02,0,0,1,71.46-31.86a18.334,18.334,0,0,1,6.975-1.283A18.109,18.109,0,0,1,85.4-31.849a16.062,16.062,0,0,1,5.366,3.544,15.82,15.82,0,0,1,3.454,5.31A17.558,17.558,0,0,1,95.445-16.4Zm-7.785,0a14.174,14.174,0,0,0-.63-4.376,9.268,9.268,0,0,0-1.811-3.3,7.811,7.811,0,0,0-2.891-2.07,9.951,9.951,0,0,0-3.893-.72,10.1,10.1,0,0,0-3.926.72,7.792,7.792,0,0,0-2.9,2.07,9.268,9.268,0,0,0-1.811,3.3,14.174,14.174,0,0,0-.63,4.376,14.254,14.254,0,0,0,.63,4.4,9.268,9.268,0,0,0,1.811,3.3,7.682,7.682,0,0,0,2.9,2.059,10.238,10.238,0,0,0,3.926.709,10.09,10.09,0,0,0,3.893-.709,7.7,7.7,0,0,0,2.891-2.059A9.268,9.268,0,0,0,87.03-12,14.254,14.254,0,0,0,87.66-16.4ZM103.1-32.783a6.454,6.454,0,0,1,.832.045,2.125,2.125,0,0,1,.607.169,2.027,2.027,0,0,1,.518.349,5.913,5.913,0,0,1,.563.608l15.57,19.688q-.09-.945-.135-1.834T121-15.435V-32.783h6.705V0h-3.96a3.649,3.649,0,0,1-1.485-.27,3.177,3.177,0,0,1-1.17-.99L105.637-20.79q.068.855.113,1.676t.045,1.541V0H99.09V-32.783Zm51.12,0v5.85H140.76v7.65h10.3v5.625h-10.3V-5.85h13.455V0h-21.1V-32.783ZM190.89-16.4a17.618,17.618,0,0,1-1.226,6.615,15.943,15.943,0,0,1-3.454,5.321,15.838,15.838,0,0,1-5.366,3.544A18.249,18.249,0,0,1,173.88.36a18.334,18.334,0,0,1-6.975-1.283,15.935,15.935,0,0,1-5.389-3.544,15.857,15.857,0,0,1-3.465-5.321,17.619,17.619,0,0,1-1.226-6.615,17.619,17.619,0,0,1,1.226-6.615,15.735,15.735,0,0,1,3.465-5.31,16.02,16.02,0,0,1,5.389-3.533,18.334,18.334,0,0,1,6.975-1.283,18.109,18.109,0,0,1,6.964,1.294,16.062,16.062,0,0,1,5.366,3.544,15.82,15.82,0,0,1,3.454,5.31A17.557,17.557,0,0,1,190.89-16.4Zm-7.785,0a14.174,14.174,0,0,0-.63-4.376,9.268,9.268,0,0,0-1.811-3.3,7.811,7.811,0,0,0-2.891-2.07,9.951,9.951,0,0,0-3.893-.72,10.1,10.1,0,0,0-3.926.72,7.792,7.792,0,0,0-2.9,2.07,9.268,9.268,0,0,0-1.811,3.3,14.174,14.174,0,0,0-.63,4.376,14.254,14.254,0,0,0,.63,4.4,9.268,9.268,0,0,0,1.811,3.3,7.682,7.682,0,0,0,2.9,2.059,10.238,10.238,0,0,0,3.926.709,10.09,10.09,0,0,0,3.893-.709,7.7,7.7,0,0,0,2.891-2.059,9.268,9.268,0,0,0,1.811-3.3A14.254,14.254,0,0,0,183.105-16.4Zm29.7-9.72a2.856,2.856,0,0,1-.709.81,1.586,1.586,0,0,1-.956.27,2.339,2.339,0,0,1-1.114-.326q-.6-.326-1.35-.731a11.2,11.2,0,0,0-1.721-.731,6.887,6.887,0,0,0-2.205-.326,4.745,4.745,0,0,0-3.184.911,3.1,3.1,0,0,0-1.046,2.464,2.27,2.27,0,0,0,.63,1.642,5.431,5.431,0,0,0,1.654,1.125,17.728,17.728,0,0,0,2.34.866q1.316.394,2.689.878a24.046,24.046,0,0,1,2.689,1.136,8.966,8.966,0,0,1,2.34,1.665,7.771,7.771,0,0,1,1.654,2.464,8.76,8.76,0,0,1,.63,3.5,11.4,11.4,0,0,1-.787,4.252A9.957,9.957,0,0,1,212.074-2.8a10.6,10.6,0,0,1-3.69,2.317A13.805,13.805,0,0,1,203.4.36a15.974,15.974,0,0,1-3.116-.315,18.507,18.507,0,0,1-3.071-.889,17.81,17.81,0,0,1-2.79-1.361A11.855,11.855,0,0,1,192.15-3.96l2.25-3.555a1.831,1.831,0,0,1,.7-.653,1.976,1.976,0,0,1,.967-.247,2.561,2.561,0,0,1,1.361.428q.686.427,1.553.945a12.634,12.634,0,0,0,1.991.945,7.466,7.466,0,0,0,2.655.427,5.054,5.054,0,0,0,3.217-.911,3.47,3.47,0,0,0,1.148-2.891,2.733,2.733,0,0,0-.63-1.868,4.867,4.867,0,0,0-1.654-1.192,15.236,15.236,0,0,0-2.329-.833q-1.3-.36-2.677-.8a19.59,19.59,0,0,1-2.678-1.08,8.45,8.45,0,0,1-2.329-1.687,7.9,7.9,0,0,1-1.654-2.61,10.363,10.363,0,0,1-.63-3.859,9.156,9.156,0,0,1,.743-3.6,9.293,9.293,0,0,1,2.182-3.127,10.731,10.731,0,0,1,3.533-2.194,13.046,13.046,0,0,1,4.792-.821,17.971,17.971,0,0,1,2.936.236,15.435,15.435,0,0,1,2.711.7,14.889,14.889,0,0,1,2.4,1.1,11.048,11.048,0,0,1,1.991,1.451Z" transform="translate(-12533 -10129)" fill="#2c364a"/>
  </g>
</svg>
