<svg xmlns="http://www.w3.org/2000/svg" width="63.573" height="53.576" viewBox="0 0 63.573 53.576">
  <g id="headphone" transform="translate(63.573 25.309) rotate(150)">
    <g id="Groupe_4" data-name="Groupe 4" transform="translate(0.89 0.931)">
      <path id="Tracé_7" data-name="Tracé 7" d="M5.191,1.365V2H0V1.365A1.363,1.363,0,0,1,1.365,0H3.827A1.364,1.364,0,0,1,5.191,1.365Z" transform="translate(2.072 25.373)" fill="#aa9ea9"/>
      <path id="Tracé_9" data-name="Tracé 9" d="M5.193,1.365V2.1H0V1.365A1.364,1.364,0,0,1,1.365,0H3.828A1.364,1.364,0,0,1,5.193,1.365Z" transform="translate(47.39 25.269)" fill="#aa9ea9"/>
      <path id="Tracé_11" data-name="Tracé 11" d="M54.174,25.6a1.372,1.372,0,0,1-1.362,1.445l-2.984.328H46.68a1.358,1.358,0,0,1-1.361-1.257A18.037,18.037,0,0,0,24.332,9.6c-8.86.608-14.78,7.988-15.359,16.337a1.358,1.358,0,0,1-1.359,1.257l-3.064.182H1.365A1.372,1.372,0,0,1,0,25.926,27.407,27.407,0,0,1,27.336,0c14.71.724,26.085,11.175,26.838,25.6Z" transform="translate(0 0)" fill="#102e3d"/>
    </g>
    <g id="Groupe_5" data-name="Groupe 5" transform="translate(0 0)">
      <path id="Tracé_21" data-name="Tracé 21" d="M54.445,29.223a2.3,2.3,0,0,0,2.087-2.415A28.289,28.289,0,0,0,10.383,6.381a.931.931,0,0,0,1.179,1.442A26.443,26.443,0,0,1,54.671,26.9a.441.441,0,0,1-.059.248.423.423,0,0,1-.373.219H47.611a.428.428,0,0,1-.432-.39,18.959,18.959,0,0,0-37.825,0,.427.427,0,0,1-.43.39H2.3a.44.44,0,0,1-.433-.465A26.465,26.465,0,0,1,8.716,10.522.931.931,0,0,0,7.339,9.268,28.333,28.333,0,0,0,0,26.811a2.3,2.3,0,0,0,2.069,2.411c5.761,0-.448,0,7.055,0a2.294,2.294,0,0,0,2.087-2.114,17.1,17.1,0,0,1,34.109,0,2.3,2.3,0,0,0,2.068,2.113Z"/>
    </g>
  </g>
</svg>
