<svg xmlns="http://www.w3.org/2000/svg" width="790.297" height="628.43" viewBox="0 0 790.297 628.43">
  <g id="Groupe_2" data-name="Groupe 2" transform="translate(8935 -1519)">
    <g id="undraw_city_driver_re_0x5e" transform="translate(-8906.526 1647.317)">
      <path id="Tracé_1" data-name="Tracé 1" d="M810.353,446.984c-13.3,27.433-36.319,48.423-62.658,64.394a276.985,276.985,0,0,1-33.623,17.214q-11.37,4.923-23.05,8.984a366.3,366.3,0,0,1-120.44,20.1q-10.036.01-20.072-.515-2.879-.148-5.759-.339-15.171-1.006-30.242-3.225c-.2-.028-.4-.057-.6-.092a380.954,380.954,0,0,1-61.945-14.518q-5.875-1.906-11.68-4c-1.045-.367-2.089-.755-3.127-1.136q-6.543-2.424-12.986-5.089-5.42-2.234-10.777-4.637-5.272-2.382-10.474-4.919-8.512-4.171-16.84-8.744-6.426-3.557-12.682-7.382a350.5,350.5,0,0,1-29.988-20.524q-5.1-3.9-10.064-7.989c-2.294-1.891-4.566-3.825-6.874-5.7A86.749,86.749,0,0,0,311,458.325a55.493,55.493,0,0,0-5.18-2.287,64.865,64.865,0,0,0-20.574-4c-11.991-.473-24.37,1.757-35.966,5.06-5.512,1.56-10.96,3.352-16.409,5.187q-3.356,1.133-6.7,2.273c-4.616,1.574-9.231,3.112-13.889,4.517-1.553.466-3.105.925-4.665,1.355a137.07,137.07,0,0,1-18.992,4.037,101.189,101.189,0,0,1-42.692-3.719l-1.179-.367c-1.976-.621-3.931-1.3-5.879-2.04l-1.179-.452q-2.816-1.09-5.526-2.336l-1.179-.536c-1.736-.812-3.437-1.659-5.11-2.555-.141-.071-.275-.141-.417-.219-.649-.339-1.291-.706-1.927-1.052A116.185,116.185,0,0,1,95.9,439.672c-.233-.233-.452-.473-.706-.706-1.122-1.214-2.223-2.449-3.289-3.712-.4-.466-.791-.932-1.179-1.412q-1.9-2.318-3.663-4.736c-.176-.233-.346-.473-.515-.706a102.357,102.357,0,0,1-11.906-21.526c-.1-.233-.191-.473-.275-.706q-1.408-3.631-2.576-7.389c-.318-1.045-.621-2.117-.889-3.162-.092-.311-.176-.628-.254-.939-3.86-15.329-4.277-31.273-4.277-47.124v-5.54c.113-25.641.508-51.719,4.291-77.007a4.259,4.259,0,0,1,.078-.522A242.811,242.811,0,0,1,75.893,239.2a187.451,187.451,0,0,1,8.688-25.619c8.7-20.467,21.357-39.093,35.408-56.356,35.359-43.412,81.778-79.907,136.108-93.522,58.544-14.7,123.609-.614,170.831,36.982,13.925,11.081,26.481,24.137,41.916,32.931q.784.455,1.588.889,3.06,1.662,6.253,3.021a64.529,64.529,0,0,0,8.688,3c9.38,2.52,19.183,2.745,28.534-.381.762-.261,1.525-.536,2.28-.84,1.6-.635,3.134-1.228,4.609-1.779,10.064-3.748,17.814-5.569,30.045-4.912A290.316,290.316,0,0,1,635.788,150.4c1.1.4,2.2.819,3.3,1.235,71.078,27.207,132.191,81.234,163.936,150.661q1.27,2.753,2.449,5.547C824.4,352.036,831.237,403.889,810.353,446.984Z" transform="translate(-61.337 -57.987)" fill="#fcf4ec" style="isolation: isolate"/>
    </g>
    <g id="undraw_mello_otq1" transform="translate(-8935 1519)">
      <path id="Tracé_29" data-name="Tracé 29" d="M351.631,313.578s-73.793,25.416-87.945,48.877S351.631,313.578,351.631,313.578Z" transform="translate(-180.43 -122.679)" fill="#e8722c"/>
      <path id="Tracé_30" data-name="Tracé 30" d="M212.2,392.208a3.6,3.6,0,0,1-2.8-1.033c-2.3-2.068-.419-5.978,1.191-8.739,21.589-37.008,130.141-76.008,134.751-77.65l9.927-3.535-8.5,6.227c-.314.231-31.894,23.346-64.222,45.123C232.287,386.459,217.366,392.208,212.2,392.208Zm123.494-80.5c-28.5,11.033-105.318,42.926-122.442,72.284-2.281,3.909-1.8,4.891-1.792,4.9.462.5,6.295,3.622,68.991-38.585C302.306,335.588,323.868,320.223,335.694,311.7Z" transform="translate(-168.5 -119.956)" fill="#2d2b2e"/>
      <path id="Tracé_31" data-name="Tracé 31" d="M349.03,280.418s-68-6.99-88.633,4.955S349.03,280.418,349.03,280.418Z" transform="translate(-179.428 -114.905)" fill="#e8722c"/>
      <path id="Tracé_32" data-name="Tracé 32" d="M248.439,288.946c-23.8,0-25.438-3.816-26.187-5.56-1.5-3.491,2.667-6.778,4.035-7.858,29.517-23.3,119.171.247,122.973,1.26l7.292,1.945-7.471,1.067c-.3.043-30.339,4.316-60.653,6.99C270.75,288.348,257.858,288.946,248.439,288.946ZM269.3,268.41c-16.766,0-32.1,2.429-41.1,9.533-2.715,2.143-3.389,3.589-3.114,4.228.69,1.609,7.277,6.474,63.075,1.55,20.792-1.835,41.454-4.423,52.427-5.875C326.526,274.611,296.089,268.41,269.3,268.41Z" transform="translate(-171.504 -112.008)" fill="#2d2b2e"/>
      <path id="Tracé_33" data-name="Tracé 33" d="M392.159,239.894s-34.205-82.132-25.918-90.261S392.159,239.894,392.159,239.894Z" transform="translate(-203.095 -86.359)" fill="#e8722c"/>
      <path id="Tracé_34" data-name="Tracé 34" d="M392.413,238.341l-4.253-10.868c-.1-.266-10.51-26.924-19.086-54.369-17.664-56.523-10.423-61.35-8.045-62.936a4,4,0,0,1,4.088-.345c13.341,6.217,24.751,105.607,26.008,116.919ZM363.371,112.5a1.142,1.142,0,0,0-.634.231c-8.5,5.667,8.732,61.462,23.88,102.071-5.2-41.873-14.764-98.442-22.8-102.188a1.045,1.045,0,0,0-.445-.114Z" transform="translate(-201.458 -77.581)" fill="#2d2b2e"/>
      <path id="Tracé_35" data-name="Tracé 35" d="M416.468,265.266s18.359-83.017,37.592-83.017S416.468,265.266,416.468,265.266Z" transform="translate(-214.476 -93.669)" fill="#e8722c"/>
      <path id="Tracé_36" data-name="Tracé 36" d="M410.251,259.41l1.816-6.835C413.4,247.563,445.1,129.81,479.754,129.81c4.751,0,6.8,2.229,7.684,4.1,9.24,19.569-64.281,109.815-72.694,120.04Zm69.5-126.522c-27.66,0-55.155,87.423-62.694,113.333,24.808-30.822,74.256-96.889,67.594-111C484.38,134.646,483.552,132.889,479.754,132.889Z" transform="translate(-213.103 -82.085)" fill="#2d2b2e"/>
      <path id="Tracé_37" data-name="Tracé 37" d="M430.3,281.354s63.12-39.887,192.439-27.711S430.3,281.354,430.3,281.354Z" transform="translate(-217.532 -108.929)" fill="#e8722c"/>
      <path id="Tracé_38" data-name="Tracé 38" d="M424.773,280.344l3.3-2.832c.669-.574,16.76-14.175,49-25.113,29.669-10.068,79.125-19.551,146.249-7.563,28.359,5.064,32.041,8.838,31.794,12.161-.244,3.283-.815,10.974-114.122,18.1-55.37,3.483-111.318,5.1-111.878,5.12Zm137.636-38.029c-72.91,0-116.015,25.906-128.513,34.677,14.8-.474,61.057-2.08,106.918-4.966C646.1,265.4,651.949,258.155,652.051,256.769c.012-.148-.066-3.689-29.264-8.9a343.192,343.192,0,0,0-60.378-5.551Z" transform="translate(-216.311 -106.256)" fill="#2d2b2e"/>
      <path id="Tracé_39" data-name="Tracé 39" d="M481.676,295.853s110.564-1.476,116.775,10.33S481.676,295.853,481.676,295.853Z" transform="translate(-228.881 -118.75)" fill="#e8722c"/>
      <path id="Tracé_40" data-name="Tracé 40" d="M609.867,325.535c-35.291,0-120.121-25.341-131.38-28.753l-9.227-2.8,9.638-.216c14.143-.316,138.4-2.384,146.217,22.633a5.551,5.551,0,0,1-1.212,5.938C621.679,324.584,616.7,325.535,609.867,325.535ZM489.018,296.707c51.861,15.2,123.872,32.373,132.7,23.465.478-.483.962-1.243.46-2.851C616.625,299.548,531.877,296.417,489.018,296.707Z" transform="translate(-226.138 -118.265)" fill="#2d2b2e"/>
      <path id="Tracé_41" data-name="Tracé 41" d="M454.012,311.6s66.781,30.867,53.732,40.364S454.012,311.6,454.012,311.6Z" transform="translate(-222.77 -122.242)" fill="#e8722c"/>
      <path id="Tracé_42" data-name="Tracé 42" d="M546.482,386.822c-32.3,0-98.079-77.7-101.138-81.336l-4.33-5.147,6.138,2.751c4.479,2.008,109.72,49.446,112.023,73.208.305,3.151-1.078,5.907-4,7.97A14.711,14.711,0,0,1,546.482,386.822Zm-94.248-78.03c25.4,29.14,81.91,86.557,101.166,72.961,2.051-1.447,2.912-3.086,2.712-5.157C554.455,359.511,485.682,324.284,452.234,308.792Z" transform="translate(-219.898 -119.754)" fill="#2d2b2e"/>
      <path id="Tracé_43" data-name="Tracé 43" d="M596.284,359.026s55.422,23.093,43.106,38.488S596.284,359.026,596.284,359.026Z" transform="translate(-254.197 -132.718)" fill="#e8722c"/>
      <path id="Tracé_44" data-name="Tracé 44" d="M463.892,335.314s115.463,126.24,104.687,133.937S463.892,335.314,463.892,335.314Z" transform="translate(-224.952 -127.48)" fill="#e8722c"/>
      <path id="Tracé_45" data-name="Tracé 45" d="M436.228,323.458s48.613,80.964,38.692,88.836S436.228,323.458,436.228,323.458Z" transform="translate(-218.841 -124.861)" fill="#e8722c"/>
      <path id="Tracé_46" data-name="Tracé 46" d="M488.948,438.434a5.694,5.694,0,0,1-1.783-.3c-17.822-5.854-53.741-111.02-57.778-122.992l-3.59-10.647,6.322,9.29c.188.277,19.083,28.089,35.851,56.86,31,53.189,28.428,63.648,23.8,66.888a4.847,4.847,0,0,1-2.82.9ZM436.219,325.5c13.1,37.193,39.48,105.628,51.906,109.711a1.952,1.952,0,0,0,1.878-.2c2.544-1.78,5.23-11.464-24.688-62.8-10.614-18.214-22.088-36.048-29.1-46.708Z" transform="translate(-216.537 -120.672)" fill="#2d2b2e"/>
      <path id="Tracé_47" data-name="Tracé 47" d="M402.567,319.506s-43.752,129.1-16.9,127.769S402.567,319.506,402.567,319.506Z" transform="translate(-205.747 -123.988)" fill="#e8722c"/>
      <path id="Tracé_48" data-name="Tracé 48" d="M370.09,467.207a12.2,12.2,0,0,1-10.777-5.48c-17.321-25.815,33.989-139.666,36.181-144.5l2.341-5.159.592,5.634c.486,4.61,11.6,113.255-13.574,142.28-3.98,4.587-8.714,7.013-14.071,7.212C370.55,467.2,370.318,467.207,370.09,467.207Zm25.817-143.283c-10.144,23.324-48.361,114.739-34.036,136.088,1.951,2.911,4.829,4.259,8.8,4.106,4.534-.168,8.413-2.181,11.859-6.154C403.569,433.7,397.885,347.366,395.906,323.924Z" transform="translate(-201.064 -122.345)" fill="#2d2b2e"/>
      <path id="Tracé_49" data-name="Tracé 49" d="M371.395,327.743s-73.442,84-66.721,92.846S371.395,327.743,371.395,327.743Z" transform="translate(-189.685 -125.808)" fill="#e8722c"/>
      <path id="Tracé_50" data-name="Tracé 50" d="M275.172,443.821a4.3,4.3,0,0,1-2.693-.892,4.742,4.742,0,0,1-1.747-3.5c-1.845-20.868,95.916-129.6,100.077-134.222l9.841-10.919-7.365,12.721c-3.139,5.421-77.1,132.819-97.015,136.7a5.758,5.758,0,0,1-1.1.111Zm87.54-124.883c-32.39,36.786-90.194,105.734-88.913,120.221a1.685,1.685,0,0,0,.571,1.341,1.5,1.5,0,0,0,1.311.188c13.764-2.682,61.845-79.364,87.03-121.75Z" transform="translate(-182.278 -118.418)" fill="#2d2b2e"/>
      <path id="Tracé_51" data-name="Tracé 51" d="M323.849,235.635S259.82,160,200.611,167.332,323.849,235.635,323.849,235.635Z" transform="translate(-164.183 -90.263)" fill="#e8722c"/>
      <path id="Tracé_52" data-name="Tracé 52" d="M325.407,238.559l-5.039-1.152c-.4-.092-40.872-9.374-80.881-21.214-81.928-24.245-82.192-35.394-82.278-39.057-.105-4.42,4.395-7.839,13.756-10.452,34.743-9.7,73.972,9.4,100.754,27.141a335.013,335.013,0,0,1,50.1,41.011Zm-134.56-71.427a70.635,70.635,0,0,0-19.056,2.519c-7.484,2.088-11.569,4.721-11.506,7.413.35,14.781,91.208,41.138,155.462,56.117-15.189-14.57-72.573-66.049-124.9-66.049Z" transform="translate(-157.206 -89.653)" fill="#2d2b2e"/>
      <path id="Tracé_53" data-name="Tracé 53" d="M275.556,248.025s-84.673-6.158-78.515,9.237S275.556,248.025,275.556,248.025Z" transform="translate(-165.935 -107.93)" fill="#e8722c"/>
      <path id="Tracé_54" data-name="Tracé 54" d="M321.58,170.272s-4.619-21.553-12.316-16.935S321.58,170.272,321.58,170.272Z" transform="translate(-190.406 -87.139)" fill="#e8722c"/>
      <path id="Tracé_55" data-name="Tracé 55" d="M425.688,169.571s21.125-88.77,11.551-89.1S425.688,169.571,425.688,169.571Z" transform="translate(-216.513 -71.187)" fill="#e8722c"/>
      <path id="Tracé_56" data-name="Tracé 56" d="M420.576,186.592,420.4,174.8c-.056-3.786-1.23-92.875,10.353-104.63a4.861,4.861,0,0,1,3.5-1.618,4.1,4.1,0,0,1,3.3,1.689c8.912,11.416-11.737,95.374-14.122,104.911ZM434.259,71.633c-.153,0-.619,0-1.309.7-7.649,7.764-9.425,59.412-9.529,89.786,8.479-36.193,17.121-83.052,11.71-89.982A1.039,1.039,0,0,0,434.259,71.633Z" transform="translate(-215.333 -68.554)" fill="#2d2b2e"/>
      <path id="Tracé_57" data-name="Tracé 57" d="M550.836,205.728s9.237-23.093,18.474-16.935S550.836,205.728,550.836,205.728Z" transform="translate(-244.158 -94.884)" fill="#e8722c"/>
      <path id="Tracé_58" data-name="Tracé 58" d="M437.274,473.634s-12.316,90.831,10.777,89.292S437.274,473.634,437.274,473.634Z" transform="translate(-218.348 -158.035)" fill="#e8722c"/>
      <path id="Tracé_59" data-name="Tracé 59" d="M513.066,420.076s-11.8-19.667-11.8-33.434c0,0-20.65-21.634-14.75-27.534S505.2,375.825,505.2,375.825s-23.6-26.55-16.717-30.484,29.5,25.567,29.5,25.567l7.867-3.933s-16.709-41.212-4.917-42.284c5.408-.492,17.7,39.334,17.7,39.334l12.784,32.45s4.917,11.8,2.95,18.684a129.778,129.778,0,0,0-2.95,12.783Z" transform="translate(-229.715 -125.133)" fill="#fdd48b"/>
      <path id="Tracé_60" data-name="Tracé 60" d="M555.13,438.376s6.883-10.817,4.392-27.334-16.192-25.767-16.192-25.767-8.85,6.883,0,24.584c0,0-10.817,9.833-1.967,25.567" transform="translate(-241.296 -138.517)" opacity="0.1"/>
      <path id="Tracé_61" data-name="Tracé 61" d="M560.179,438.376s6.883-10.817,4.392-27.334-16.192-25.767-16.192-25.767-8.85,6.883,0,24.584c0,0-10.817,9.833-1.967,25.567" transform="translate(-242.412 -138.517)" fill="#fdd48b"/>
      <path id="Tracé_62" data-name="Tracé 62" d="M522.347,380.765l-5.408-8.358s-25.567-3.933-22.617,4.917,14.75,4.917,14.75,4.917l6.883,6.883Z" transform="translate(-231.622 -135.482)" opacity="0.1"/>
      <path id="Tracé_63" data-name="Tracé 63" d="M527.329,379.437l-7.867-10.817s-25.567-3.933-22.617,4.917,14.75,4.917,14.75,4.917l6.883,6.883Z" transform="translate(-232.179 -134.645)" fill="#fdd48b"/>
      <path id="Tracé_64" data-name="Tracé 64" d="M611.569,479.334l-4.917,39.334,76.7,4.917v-47.2Z" transform="translate(-134.008 -105.232)" fill="#fdd48b"/>
      <path id="Tracé_65" data-name="Tracé 65" d="M923.186,747.48l-63.25-125.893c-3.716-12.305-15.32-32.346-51.374-45.223L781.52,553.489l-20.159-.724-80.634-11.8s-61.951-3.933-102.268,20.65L567.642,556.7s-17.7-62.934-9.833-108.168L512.574,444.6s-24.584,107.185-12.783,139.635,55.067,56.051,55.067,56.051l38.351,38.351L609.134,745.5s52.354,26.768,123.344,32.407c3.728,2.448,66.646,5.07,116.55-6.115C905.9,762.63,923.186,747.48,923.186,747.48Z" transform="translate(-232.174 -151.62)" fill="#2d2b2e"/>
      <path id="Tracé_66" data-name="Tracé 66" d="M866.763,474.956c-72.447,19.563-143.652,20.946-213.353.3a18.772,18.772,0,0,1-13.795-17.785V253.864c0-9.11,6.932-16.882,16.379-18.363,65.751-10.311,135.406-9.513,208.258.385,9.626,1.308,16.772,9.168,16.772,18.421V457.041A18.8,18.8,0,0,1,866.763,474.956Z" transform="translate(-263.769 -103.799)" fill="#2d2b2e"/>
      <path id="Tracé_67" data-name="Tracé 67" d="M733.107,357s-16.663-24.354-6.409-30.763,25.636,11.536,25.636,11.536,19.227-16.663,29.481-10.254S771.56,357,771.56,357s15.381,3.845,16.663,14.1,6.409,37.172-15.381,38.453c-11.673.687-18.2-2.673-21.738-5.941a7.144,7.144,0,0,0-9.409-.112c-7.389,6.225-20.7,13.4-30.379-4.2C707.471,372.379,733.107,357,733.107,357Z" transform="translate(-279.521 -125.169)" fill="#f4f6f6"/>
      <path id="Tracé_68" data-name="Tracé 68" d="M881.3,360.288s16.663-24.354,6.409-30.763-25.636,11.536-25.636,11.536-19.227-16.663-29.481-10.254,10.254,29.481,10.254,29.481-15.381,3.845-16.663,14.1-6.409,37.172,15.381,38.453c11.673.687,18.2-2.673,21.738-5.941a7.144,7.144,0,0,1,9.409-.111c7.389,6.225,20.7,13.4,30.379-4.2C906.935,375.67,881.3,360.288,881.3,360.288Z" transform="translate(-304.662 -125.896)" fill="#f4f6f6"/>
      <path id="Tracé_69" data-name="Tracé 69" d="M709.843,454.127s24.045,19.359,75.318,18.138,67.854-3.314,78.813-15.4,14.208,1.873,10.8,11.022S867,492.651,841.462,495.182c-16.816,1.666-53.16,2.061-76.033,2.136a116.89,116.89,0,0,1-51.395-11.433l-.634-.31a29.1,29.1,0,0,1-16.212-26.08c0-4.312.761-6.642,3.568-7.491C705.815,450.474,709.843,454.127,709.843,454.127Z" transform="translate(-276.487 -153.174)" fill="#f4f6f6"/>
      <path id="Tracé_70" data-name="Tracé 70" d="M770.542,481.163A388.359,388.359,0,0,1,654.97,463.631,22.577,22.577,0,0,1,639.005,442V203.469a22.561,22.561,0,0,1,18.958-22.338c70.615-11.639,148.808-11.488,232.4.448a22.735,22.735,0,0,1,19.413,22.407v237.5a22.761,22.761,0,0,1-16.506,21.792c-40.936,11.617-81.406,17.63-120.286,17.872C772.176,481.16,771.356,481.163,770.542,481.163Zm-2.724-306.978a674.105,674.105,0,0,0-109.583,8.6,20.9,20.9,0,0,0-17.558,20.688V442a20.911,20.911,0,0,0,14.79,20.038c74.71,23.257,154.565,23.136,237.351-.358l.229.8-.229-.8a21.082,21.082,0,0,0,15.291-20.184v-237.5a21.055,21.055,0,0,0-17.979-20.753,866.6,866.6,0,0,0-122.312-9.049Z" transform="translate(-263.634 -91.518)" fill="#2d2b2e"/>
      <path id="Tracé_71" data-name="Tracé 71" d="M766.638,216.011c-18.414,0-34.171-.826-47.073-1.945-40.578-3.52-62.444-10.623-62.661-10.694l.524-1.587c.215.071,21.949,7.125,62.359,10.623,37.3,3.23,98.587,4,178.753-10.652l.3,1.645C846.175,213.027,801.621,216.011,766.638,216.011Z" transform="translate(-267.588 -97.978)" fill="#2d2b2e"/>
    </g>
  </g>
</svg>
