<svg id="Groupe_11" data-name="Groupe 11" xmlns="http://www.w3.org/2000/svg" width="849.85" height="500.5" viewBox="0 0 849.85 500.5">
  <path id="Tracé_214" data-name="Tracé 214" d="M501.948,743.461h-5.039a4.175,4.175,0,0,1-4.175-4.175V725.032h9.214l3.7,13.58a3.839,3.839,0,0,1-3.7,4.849Z" transform="translate(-157.663 -244.164)" fill="#605d82"/>
  <rect id="Rectangle_3" data-name="Rectangle 3" width="594.75" height="226.173" rx="13.224" transform="translate(66.595 157.123)" fill="#f2f2f2"/>
  <rect id="Rectangle_4" data-name="Rectangle 4" width="805.845" height="438.065" rx="13.638" transform="translate(2.094 0.5)" fill="none" stroke="#3f3d56" stroke-miterlimit="10" stroke-width="1"/>
  <line id="Ligne_1" data-name="Ligne 1" x2="805.845" transform="translate(0 31.108)" fill="none" stroke="#3f3d56" stroke-miterlimit="10" stroke-width="1"/>
  <line id="Ligne_2" data-name="Ligne 2" x2="806" transform="translate(0 84.603)" fill="none" stroke="#3f3d56" stroke-miterlimit="10" stroke-width="1"/>
  <circle id="Ellipse_12" data-name="Ellipse 12" cx="8.377" cy="8.377" r="8.377" transform="translate(12.146 10.552)" fill="#f86b75"/>
  <circle id="Ellipse_13" data-name="Ellipse 13" cx="8.377" cy="8.377" r="8.377" transform="translate(38.114 10.552)" fill="#fad375"/>
  <circle id="Ellipse_14" data-name="Ellipse 14" cx="8.377" cy="8.377" r="8.377" transform="translate(64.082 10.552)" fill="#8bcc55"/>
  <circle id="Ellipse_15" data-name="Ellipse 15" cx="8.377" cy="8.377" r="8.377" transform="translate(14.659 7.201)" fill="none" stroke="#3f3d56" stroke-miterlimit="10" stroke-width="1"/>
  <circle id="Ellipse_16" data-name="Ellipse 16" cx="8.377" cy="8.377" r="8.377" transform="translate(40.627 7.201)" fill="none" stroke="#3f3d56" stroke-miterlimit="10" stroke-width="1"/>
  <circle id="Ellipse_17" data-name="Ellipse 17" cx="8.377" cy="8.377" r="8.377" transform="translate(66.595 7.201)" fill="none" stroke="#3f3d56" stroke-miterlimit="10" stroke-width="1"/>
  <circle id="Ellipse_18" data-name="Ellipse 18" cx="16.754" cy="16.754" r="16.754" transform="translate(171.724 45.316)" fill="#f2f2f2"/>
  <circle id="Ellipse_19" data-name="Ellipse 19" cx="16.754" cy="16.754" r="16.754" transform="translate(175.912 41.127)" fill="none" stroke="#3f3d56" stroke-miterlimit="10" stroke-width="1"/>
  <rect id="Rectangle_5" data-name="Rectangle 5" width="83" height="22" rx="5.423" transform="translate(423 53.603)" fill="#4463dd"/>
  <rect id="Rectangle_6" data-name="Rectangle 6" width="83" height="22" rx="5.423" transform="translate(541 53.603)" fill="#4463dd"/>
  <rect id="Rectangle_7" data-name="Rectangle 7" width="83" height="23" rx="4.222" transform="translate(429 46.603)" fill="none" stroke="#3f3d56" stroke-miterlimit="10" stroke-width="1"/>
  <rect id="Rectangle_8" data-name="Rectangle 8" width="83" height="23" rx="4.222" transform="translate(547 46.603)" fill="none" stroke="#3f3d56" stroke-miterlimit="10" stroke-width="1"/>
  <rect id="Rectangle_9" data-name="Rectangle 9" width="594.75" height="226.173" rx="16.004" transform="translate(96.752 138.697)" fill="none" stroke="#3f3d56" stroke-miterlimit="10" stroke-width="1"/>
  <path id="Tracé_215" data-name="Tracé 215" d="M531.89,495.3A57.127,57.127,0,1,0,466.114,403m27.325,25.982v-9.726l34.278,25.708-7.891,5.445" transform="translate(-153.342 -189.409)" fill="none" stroke="#3f3d56" stroke-miterlimit="10" stroke-width="1"/>
  <path id="Tracé_216" data-name="Tracé 216" d="M491.3,394.832a57.13,57.13,0,1,0,57.13,57.13A57.129,57.129,0,0,0,491.3,394.832ZM479.877,477.67V426.253l34.278,25.708Z" transform="translate(-148.157 -190.546)" fill="#4463dd"/>
  <path id="Tracé_217" data-name="Tracé 217" d="M473.491,581.616s-10.261,35.69-10.707,51.3-2.231,40.6-.892,46.843,5.354,18.737,5.354,18.737,8.476-10.261,11.6-4.461c0,0-.446-12.045-2.677-15.614,0,0,.892-18.737.892-25.429s11.153-37.475,12.045-37.921,3.569,8.476,1.338,28.106-4.015,53.991-4.015,57.56,5.354,10.707,8.923,8.476,5.8-21.424,5.8-21.424,3.123-40.151,4.907-44.613,11.153-55.766,4.015-59.781S473.491,581.616,473.491,581.616Z" transform="translate(-152.577 -220.784)" fill="#46455b"/>
  <path id="Tracé_218" data-name="Tracé 218" d="M481.8,718.489c-.446,1.785-2.231,10.261-2.231,12.938s1.784,7.584-5.8,9.369c-7.388,1.74-6.308-2.873-7.486-5.586-.031-.071-.062-.143-.1-.214-1.338-2.677,1.785-16.507,2.231-16.507.262,0,2.372-3.542,4.068-6.464a4.744,4.744,0,0,1,7.364-1.114,7.282,7.282,0,0,1,2.215,5.258,8.964,8.964,0,0,1-.263,2.32Z" transform="translate(-153.299 -241.664)" fill="#605d82"/>
  <path id="Tracé_219" data-name="Tracé 219" d="M481.88,719.478c-.446,1.785-2.231,10.261-2.231,12.938s1.784,7.584-5.8,9.369c-7.388,1.74-6.308-2.873-7.486-5.586,1.28-3.328,4.39-10.479,6.594-16.721,1.945-5.514,6.728-3.716,9.186-2.32a8.962,8.962,0,0,1-.263,2.32Z" transform="translate(-153.383 -242.653)" opacity="0.1"/>
  <circle id="Ellipse_20" data-name="Ellipse 20" cx="9.369" cy="9.369" r="9.369" transform="translate(332.066 272.963)" fill="#fbbebe"/>
  <path id="Tracé_220" data-name="Tracé 220" d="M491.018,490.105l-1.338,14.722L505.74,507.5s-1.785-12.938-.446-15.614S491.018,490.105,491.018,490.105Z" transform="translate(-157.167 -205.99)" fill="#fbbebe"/>
  <path id="Tracé_221" data-name="Tracé 221" d="M499.62,503.865s-13.384-1.338-14.276,0a7.666,7.666,0,0,0-.892,3.569s-5.353,2.231-6.246,1.338-1.785-3.569-4.461-2.677-8.03,16.953-8.03,16.953,1.338-4.907,3.569,13.83,1.785,30.337,2.231,31.675-2.231,9.369,13.83,9.369,27.66-.892,27.66-4.015-2.677-16.507,0-26.321,6.692-23.2,6.692-23.2l-5.354-17.4s-5.353-1.338-6.692.892-4.907,1.785-4.907,1.785S502.3,504.311,499.62,503.865Z" transform="translate(-153.277 -208.155)" fill="#605d82"/>
  <path id="Tracé_222" data-name="Tracé 222" d="M468.3,500.327l-11.153-4.907s-20.968-16.061-20.076-30.337c0,0-7.138-6.692-7.584.446s1.785,23.2,7.138,28.552,23.645,22.306,26.321,22.752S468.3,500.327,468.3,500.327Z" transform="translate(-147.388 -201.49)" fill="#605d82"/>
  <path id="Tracé_223" data-name="Tracé 223" d="M429.78,462.9s-8.476-23.2-.892-22.306,5.8,10.707,5.8,10.707v11.6Z" transform="translate(-146.787 -197.97)" fill="#fbbebe"/>
  <path id="Tracé_224" data-name="Tracé 224" d="M521.634,501.392l11.153-4.907s20.968-16.061,20.076-30.337c0,0,7.138-6.692,7.584.446s-1.784,23.2-7.138,28.552-23.645,22.306-26.321,22.752S521.634,501.392,521.634,501.392Z" transform="translate(-162.354 -201.663)" fill="#605d82"/>
  <path id="Tracé_225" data-name="Tracé 225" d="M565.917,463.97s8.476-23.2.892-22.306-5.8,10.707-5.8,10.707v11.6Z" transform="translate(-168.716 -198.143)" fill="#fbbebe"/>
  <path id="Tracé_226" data-name="Tracé 226" d="M505.314,473.928l1.338-.892s-8.476-4.907-12.045-2.231-4.461,4.907-5.353,5.8-3.123,5.8-1.785,7.584.892,2.15,1.785,3.752-1.559,8.045,5.243,9.954,12.156-6.121,13.048-7.906S511.56,476.159,505.314,473.928Z" transform="translate(-156.741 -202.75)" fill="#46455b"/>
  <path id="Tracé_227" data-name="Tracé 227" d="M917.9,625.223c0,49.39,30.984,89.355,69.275,89.355" transform="translate(-226.677 -227.963)" fill="#46455b"/>
  <path id="Tracé_228" data-name="Tracé 228" d="M1000.6,714.384c0-49.945,34.577-90.359,77.307-90.359" transform="translate(-240.101 -227.768)" fill="#4463dd"/>
  <path id="Tracé_229" data-name="Tracé 229" d="M947.86,630.568c0,46.915,19.758,84.878,44.176,84.878" transform="translate(-231.541 -228.83)" fill="#4463dd"/>
  <path id="Tracé_230" data-name="Tracé 230" d="M1000.6,709.52c0-63.818,39.966-115.459,89.355-115.459" transform="translate(-240.101 -222.904)" fill="#46455b"/>
  <path id="Tracé_231" data-name="Tracé 231" d="M983.2,731.617s9.824-.3,12.785-2.411,15.112-4.626,15.847-1.245,14.764,16.817,3.673,16.907-25.772-1.728-28.727-3.528S983.2,731.617,983.2,731.617Z" transform="translate(-237.277 -244.371)" fill="#a8a8a8"/>
  <path id="Tracé_232" data-name="Tracé 232" d="M1015.7,744.717c-11.092.089-25.772-1.728-28.727-3.528-2.25-1.371-3.147-6.29-3.447-8.559l-.328.013s.622,7.923,3.578,9.724,17.635,3.617,28.727,3.528c3.2-.026,4.308-1.165,4.247-2.852C1019.305,744.061,1018.084,744.7,1015.7,744.717Z" transform="translate(-237.277 -245.397)" opacity="0.2"/>
  <line id="Ligne_3" data-name="Ligne 3" x2="198.529" transform="translate(230.361 499.297)" fill="none" stroke="#3f3d56" stroke-miterlimit="10" stroke-width="1"/>
  <line id="Ligne_4" data-name="Ligne 4" x2="61.988" transform="translate(734.548 499.698)" fill="none" stroke="#3f3d56" stroke-miterlimit="10" stroke-width="1"/>
</svg>
