<svg xmlns="http://www.w3.org/2000/svg" width="655.594" height="500" viewBox="0 0 655.594 500">
  <g id="Groupe_1" data-name="Groupe 1" transform="translate(0.027 0)">
    <path id="Tracé_1" data-name="Tracé 1" d="M423.088,489.194a6.994,6.994,0,0,0-2.38-4.8l-11.13-9.7a7,7,0,0,0-9.39.17,5.579,5.579,0,0,0-.48.5l-29.06,33.32-3.18,3.64-48.62,55.75a7.018,7.018,0,0,0,.68,9.88l11.12,9.7a7.013,7.013,0,0,0,9.88-.67l26.94-30.89,24.28-27.85,29.63-33.97a6.982,6.982,0,0,0,1.71-5.08Z" transform="translate(-246.408 -207.555)" fill="#268d81"/>
    <path id="Tracé_2" data-name="Tracé 2" d="M599.348,426.344l-6.76-13.12a7.017,7.017,0,0,0-9.43-3.01l-55.07,28.39-34.62,17.85-19.65,10.13a6.642,6.642,0,0,0-1.42.98,6.864,6.864,0,0,0-2.04,3.11,6.935,6.935,0,0,0,.45,5.34l2.64,5.13,4.12,7.99a6.975,6.975,0,0,0,4.09,3.46,7.245,7.245,0,0,0,2.15.33,6.9,6.9,0,0,0,3.19-.78l23.34-12.03,30.52-15.74,55.48-28.6a7.017,7.017,0,0,0,3.01-9.43Z" transform="translate(-266.41 -200.102)" fill="#268d81"/>
    <path id="Tracé_3" data-name="Tracé 3" d="M541.158,465l-.3-.63-11.82-24.35a7.034,7.034,0,0,0-4.05-3.5,6.959,6.959,0,0,0-5.38.41l-28.84,17.48-19.2,11.64a1.7,1.7,0,0,0-.4.28c-1.1.99-1.69,3.53-2.17,5.61-.17.72-.31,1.35-.45,1.76-.05.17-.11.35-.15.53a6.971,6.971,0,0,0,.54,4.81l2.36,4.71,4.26,8.48a7.037,7.037,0,0,0,6.28,3.87,6.81,6.81,0,0,0,3.08-.74l26.86-10.6,26.26-10.37a7.009,7.009,0,0,0,3.12-9.39Z" transform="translate(-264.481 -201.325)" fill="#2f2e41"/>
    <circle id="Ellipse_1" data-name="Ellipse 1" cx="53.519" cy="53.519" r="53.519" transform="translate(133.408 127.257)" fill="#268d81"/>
    <path id="Tracé_4" data-name="Tracé 4" d="M447.438,587.384a6.962,6.962,0,0,0-4.45-6.23,6.859,6.859,0,0,0-2.53-.48H425.7a7.008,7.008,0,0,0-7,7v125.01a7.008,7.008,0,0,0,7,7h14.76a7.008,7.008,0,0,0,7-7V587.674A1.366,1.366,0,0,0,447.438,587.384Z" transform="translate(-259.518 -219.684)" fill="#268d81"/>
    <path id="Tracé_5" data-name="Tracé 5" d="M514.5,643.2a6.961,6.961,0,0,0-.76-1.35l-25.16-35.2-20.73-28.99h-35.36l2.5,3.49,4.45,6.23,13.79,19.28,29.55,41.33,7.57,10.58a7,7,0,0,0,9.76,1.63l12.01-8.59a7.008,7.008,0,0,0,2.38-8.41Zm-72.3-101.42a7.011,7.011,0,0,0-9.77-1.62l-12.01,8.58a7.011,7.011,0,0,0-1.62,9.77l4.4,6.15h35.36Z" transform="translate(-260.895 -219.684)" fill="#268d81"/>
    <path id="Tracé_6" data-name="Tracé 6" d="M514.728,643.544a4.088,4.088,0,0,0-.229-.34,9.642,9.642,0,0,0-3.56-2.96l-13.21-6.57c-3.46-1.72-7.18-1.3-8.29.94l-6.66,13.38-27.39,55.02c-1.12,2.24.79,5.46,4.24,7.18l13.21,6.58a9.713,9.713,0,0,0,4.23,1.06c1.86,0,3.41-.69,4.06-2l34.05-68.4A3.963,3.963,0,0,0,514.728,643.544Z" transform="translate(-263.062 -219.684)" fill="#268d81"/>
    <path id="Tracé_7" data-name="Tracé 7" d="M435.618,472.744l-2.22-2.18-1.23-1.23-7.06-6.95a7.034,7.034,0,0,0-4.41-2c-.19-.01-.37-.02-.56-.02-.42.01-1.06-.05-1.81-.11-2.37-.2-5.33-.46-6.36.6l-13.67,11.82-28.89,24.97a6.941,6.941,0,0,0-1.94,3.9,6.338,6.338,0,0,0-.08,1.07,6.013,6.013,0,0,0,.08.95,6.949,6.949,0,0,0,2.01,3.99l1.17,1.13,18.86,18.08a7.015,7.015,0,0,0,4.96,2.01,6.769,6.769,0,0,0,2.37-.43,7.018,7.018,0,0,0,2.59-1.68l32.87-39.91,2.15-2.61,1.24-1.5a7.007,7.007,0,0,0-.07-9.9Z" transform="translate(-256.215 -203.716)" fill="#2f2e41"/>
    <path id="Tracé_8" data-name="Tracé 8" d="M438.766,393.677l-.056-2c3.721-.1,7-.337,9.466-2.138a6.148,6.148,0,0,0,2.381-4.528,3.514,3.514,0,0,0-1.153-2.895c-1.636-1.382-4.269-.935-6.188-.055l-1.655.759,3.173-23.19,1.981.271-2.7,19.727c2.607-.767,5.023-.437,6.678.961a5.471,5.471,0,0,1,1.86,4.492,8.133,8.133,0,0,1-3.2,6.073C446.189,393.469,442.073,393.585,438.766,393.677Z" transform="translate(-260.726 -194.286)" fill="#2f2e41"/>
    <rect id="Rectangle_1" data-name="Rectangle 1" width="10.771" height="2" transform="translate(194.534 168.006)" fill="#2f2e41"/>
    <rect id="Rectangle_2" data-name="Rectangle 2" width="10.771" height="2" transform="translate(163.054 168.006)" fill="#2f2e41"/>
    <path id="Tracé_9" data-name="Tracé 9" d="M440.935,293.664C435,269.874,412,251.609,387.346,252.063a56.772,56.772,0,0,0-33.558,12.168A54.245,54.245,0,0,0,341.481,277.7c-3.715,5.8-6.048,12.343-7.869,18.949C329.932,309.992,328.2,325.1,318.86,336a41.015,41.015,0,0,1-31.033,13.961,38.318,38.318,0,0,1-30.3-15.643c-7.029-9.372-10.49-22.333-6.429-33.643,1.993-5.55,6.278-10.793,12.406-11.718a14.462,14.462,0,0,1,14.318,6.854c2.756,4.836,1.875,11.289-1.578,15.554-3.637,4.493-9.715,5.737-15.075,3.932a13.7,13.7,0,0,1-6.376-4.523c-1.2-1.514-3.323.609-2.137,2.107a17.341,17.341,0,0,0,15.839,6.052,16.189,16.189,0,0,0,12.9-10.78,16.438,16.438,0,0,0-3-16.615,17.59,17.59,0,0,0-16.339-5.353c-6.328,1.34-10.924,6.544-13.309,12.312a34.358,34.358,0,0,0-1.789,18.849,44.163,44.163,0,0,0,20.215,29.781c10.669,6.551,23.985,7.452,35.689,3.244a43.737,43.737,0,0,0,15.669-9.648,46.894,46.894,0,0,0,10.793-17.225c5.277-13.816,6.05-29.277,13.516-42.264a53.188,53.188,0,0,1,28.931-23.4,49.736,49.736,0,0,1,36.911,1.772,54.31,54.31,0,0,1,26.293,26.107,48.615,48.615,0,0,1,3.057,8.729c.468,1.877,3.365,1.1,2.9-.777Z" transform="translate(-246.408 -180.316)" fill="#2f2e41"/>
    <path id="Tracé_10" data-name="Tracé 10" d="M498.778,486.764q-.615-2.37-1.44-4.65a53.426,53.426,0,0,0-16.87-23.66q-1.305-1.065-2.7-2.04a53.234,53.234,0,0,0-15.119-7.406,8.6,8.6,0,0,0-.021-4.718,9.432,9.432,0,0,0-9.127-6.626h-13.04a9.458,9.458,0,0,0-9.153,6.637,8.582,8.582,0,0,0-.021,4.7,53.53,53.53,0,0,0-37.818,51.16V603.836c0,7.077,2.69,12.828,6,12.828h95c.04,0,27.07,0,27.11-.021,3.26-.107,5.89-5.815,5.89-12.806h0c0-23.934-5.288-57.573-15.486-79.225l-11.514-24.447a53.768,53.768,0,0,0-1.69-13.4Z" transform="translate(-259.653 -208.429)" fill="#2f2e41"/>
    <path id="Tracé_11" data-name="Tracé 11" d="M391.968,386.164c-6.617,0-12-8.075-12-18s5.383-18,12-18,12,8.075,12,18S398.585,386.164,391.968,386.164Z" transform="translate(-256.5 -193.6)" fill="#3f3d56"/>
    <path id="Tracé_12" data-name="Tracé 12" d="M498.968,386.164c-6.617,0-12-8.075-12-18s5.383-18,12-18,12,8.075,12,18S505.585,386.164,498.968,386.164Z" transform="translate(-264.584 -193.6)" fill="#3f3d56"/>
    <path id="Tracé_13" data-name="Tracé 13" d="M502.336,383.348a1.5,1.5,0,0,1-1.422-1.98,58.5,58.5,0,1,0-112.687-6.575,1.5,1.5,0,0,1-2.936.619,61.5,61.5,0,1,1,118.466,6.915,1.5,1.5,0,0,1-1.421,1.021Z" transform="translate(-258.564 -190.726)" fill="#3f3d56"/>
    <path id="Tracé_14" data-name="Tracé 14" d="M423.005,332.166c-2.119,2.893-1.074,6.791,1.158,9.285,2.905,3.245,7.539,3.45,11.562,2.848,4.514-.676,9.3-2.791,13.873-1.366,3.9,1.215,6.674,4.748,10.721,5.635,3.589.787,7.881-.255,9.139-4.08.6-1.838-2.291-2.626-2.893-.8-.814,2.475-4.329,2.425-6.341,1.74-3.227-1.1-5.714-3.771-8.885-5.047-3.739-1.5-7.8-.825-11.6.032-3.588.808-7.718,2.006-11.293.5-2.645-1.117-4.75-4.635-2.847-7.232C426.738,332.121,424.136,330.622,423.005,332.166Z" transform="translate(-260.141 -191.718)" fill="#2f2e41"/>
    <path id="Tracé_15" data-name="Tracé 15" d="M566.948,719.664h-216a1,1,0,1,1,0-2h216a1,1,0,0,1,0,2Z" transform="translate(-246.408 -219.684)" fill="#3f3d56"/>
    <path id="Tracé_16" data-name="Tracé 16" d="M951.757,412.759H714.427a1.835,1.835,0,1,1,0-3.67h237.33a1.835,1.835,0,1,1,0,3.67Z" transform="translate(-298.025 -197.128)" fill="#e6e6e6"/>
    <path id="Tracé_17" data-name="Tracé 17" d="M850.867,311.506h-92.29a19.472,19.472,0,0,1-19.45-19.45v-92.29a19.472,19.472,0,0,1,19.45-19.45h92.29a19.472,19.472,0,0,1,19.45,19.45v92.29A19.472,19.472,0,0,1,850.867,311.506Z" transform="translate(-298.025 -180.316)" fill="#268d81"/>
    <path id="Tracé_18" data-name="Tracé 18" d="M907.607,354.306h-92.29a19.472,19.472,0,0,1-19.45-19.45v-92.29a19.472,19.472,0,0,1,19.45-19.45h92.29a19.472,19.472,0,0,1,19.45,19.45v92.29A19.472,19.472,0,0,1,907.607,354.306Z" transform="translate(-298.025 -180.316)" opacity="0.1" style="isolation: isolate"/>
    <path id="Tracé_19" data-name="Tracé 19" d="M748.468,465.664a1,1,0,0,1-1-1v-18a1,1,0,0,1,2,0v18a1,1,0,0,1-1,1Z" transform="translate(-283.085 -200.429)" fill="#ccc"/>
    <path id="Tracé_20" data-name="Tracé 20" d="M829.968,465.664a1,1,0,0,1-1-1v-18a1,1,0,0,1,2,0v18a1,1,0,0,1-1,1Z" transform="translate(-298.025 -200.429)" fill="#3f3d56"/>
    <path id="Tracé_21" data-name="Tracé 21" d="M836.968,465.664a1,1,0,0,1-1-1v-18a1,1,0,0,1,2,0v18a1,1,0,0,1-1,1Z" transform="translate(-298.025 -200.429)" fill="#3f3d56"/>
    <path id="Tracé_22" data-name="Tracé 22" d="M763.148,465.989a2.313,2.313,0,0,1-1.16-.315l-11.894-8.022-.067-.042a2.267,2.267,0,0,1-1.059-1.948,2.3,2.3,0,0,1,1.16-2.009l11.8-7.965a2.319,2.319,0,0,1,3.539,1.972v16a2.329,2.329,0,0,1-2.32,2.324Zm-.1-2.01a.306.306,0,0,0,.26-.037.311.311,0,0,0,.16-.277v-16a.32.32,0,0,0-.48-.277l-11.8,7.965c-.2.117-.219.245-.219.314a.31.31,0,0,0,.16.277l.06.037Z" transform="translate(-283.967 -200.43)" fill="#ccc"/>
    <path id="Tracé_23" data-name="Tracé 23" d="M916.468,465.664a1,1,0,0,1-1-1v-18a1,1,0,0,1,2,0v18a1,1,0,0,1-1,1Z" transform="translate(-298.025 -200.429)" fill="#ccc"/>
    <path id="Tracé_24" data-name="Tracé 24" d="M901.77,465.985a2.272,2.272,0,0,1-1.141-.31,2.3,2.3,0,0,1-1.16-2.009v-16a2.32,2.32,0,0,1,3.48-2.009l11.919,8.039a2.262,2.262,0,0,1,1.1,1.972,2.3,2.3,0,0,1-1.126,1.989l-11.835,7.985a2.458,2.458,0,0,1-1.238.347Zm-.3-2.319a.32.32,0,0,0,.48.277l11.846-7.994a.337.337,0,0,0,.174-.284h0a.309.309,0,0,0-.16-.277l-11.92-8.039a.3.3,0,0,0-.261.037.31.31,0,0,0-.16.277Z" transform="translate(-298.025 -200.43)" fill="#ccc"/>
    <circle id="Ellipse_2" data-name="Ellipse 2" cx="12" cy="12" r="12" transform="translate(482.616 201.909)" fill="#3f3d56"/>
  </g>
</svg>
