<svg xmlns="http://www.w3.org/2000/svg" xmlns:xlink="http://www.w3.org/1999/xlink" width="688.087" height="500" viewBox="0 0 688.087 500">
  <defs>
    <linearGradient id="linear-gradient" x1="-0.232" y1="0.5" x2="0.769" y2="0.5" gradientUnits="objectBoundingBox">
      <stop offset="0" stop-color="gray" stop-opacity="0.251"/>
      <stop offset="0.54" stop-color="gray" stop-opacity="0.122"/>
      <stop offset="1" stop-color="gray" stop-opacity="0.102"/>
    </linearGradient>
    <linearGradient id="linear-gradient-2" x1="-3.46" y1="0.929" x2="-3.46" y2="-0.082" xlink:href="#linear-gradient"/>
  </defs>
  <g id="Groupe_10" data-name="Groupe 10" transform="translate(-109.824 -33.068)">
    <path id="Tracé_26" data-name="Tracé 26" d="M872.34,470.676a4.7,4.7,0,0,0,1.058,2.753,15.642,15.642,0,0,0,4.233,3.6v4.313s12.731,10.638,15.349,14.657c2.522,3.835,5.1,7.742,8.689,10.6a7.839,7.839,0,0,0,3.239,1.719h.215a3.366,3.366,0,0,1-1.241.8,2.944,2.944,0,0,0,3.469,2.491,5.8,5.8,0,0,0,1.719-.859l5.045-3.262a14.449,14.449,0,0,0,2.347-1.758c.939-.947,1.591-2.133,2.514-3.1,1.591-1.655,3.851-2.642,4.957-4.631a22.382,22.382,0,0,0,1.241-4.074c.279-.891.684-1.735.955-2.626a9.487,9.487,0,0,0,.326-1.639c.175.151.358.3.549.446.39-.255,1.138.414.963.843s-.6.74-.74,1.186c-.318,1.018.939,1.774,1.464,2.705s.255,2.125.31,3.183.541,2.331.692,3.517c.366,2.769-1,5.689,0,8.307a2.618,2.618,0,0,0-2.586,2.013,7.622,7.622,0,0,0,.1,3.541,4.87,4.87,0,0,0-2.387,4.448,1.09,1.09,0,0,1-.111.8,1.129,1.129,0,0,1-.453.263,4.488,4.488,0,0,0-2.769,4.169,2.07,2.07,0,0,1-.08.883,2.092,2.092,0,0,1-.652.668,5.188,5.188,0,0,0-1.933,4.058,2.944,2.944,0,0,0,1.368,2.658h.056a14.323,14.323,0,0,0-4.774,9.063,37.208,37.208,0,0,0,.621,9.381h.286V552a4.176,4.176,0,0,0,.454,1.353,19.383,19.383,0,0,1,1.711,6.97,6.172,6.172,0,0,0,.239,1.758,8.863,8.863,0,0,0,.9,1.544c1.058,1.727,1.3,3.811,1.663,5.809a45.929,45.929,0,0,0,2.029,7.615c1.217,3.374,2.857,6.827,2.3,10.344a10.34,10.34,0,0,0-.318,2.554,7.47,7.47,0,0,0,1,2.681,24.85,24.85,0,0,1,1.114,2.483,2.005,2.005,0,0,0,.493,1.345c.1.263.175.533.255.8s.135.422.2.637a8.2,8.2,0,0,1,.247,1.082l-.048.835v.8a1.983,1.983,0,0,1-.382.708,2.84,2.84,0,0,1-.207.231l-.191.215a1.436,1.436,0,0,0-.215.31h0a1.488,1.488,0,0,0-.064.915,1.453,1.453,0,0,0,.08.358c.2.859.414,1.719.629,2.57.064.263.135.517.2.8.175.668.35,1.345.533,2.013v.088l.119.446.454,1.639c.1.326.191.645.279.971l.35,1.186q.406,1.384.836,2.769c2.841,9.373,5.888,18.691,7.766,28.3a3.047,3.047,0,0,0,1.138,1.7,6.557,6.557,0,0,0,1.981,1.066c.183,1.408.637,3.127.692,3.978.175,2.777.3,5.737-.708,8.267a.668.668,0,0,0-.6.191,24.655,24.655,0,0,0-1.822,1.934l-3.732,3.979a6.168,6.168,0,0,0-.843,1.026,3.589,3.589,0,0,0-.358,2.936,3.978,3.978,0,0,0,1.918,2.276,3.183,3.183,0,0,1,.6.342,3.581,3.581,0,0,0,.374.318,1.449,1.449,0,0,0,.8.151,28.414,28.414,0,0,0,6.262-1.066,5.021,5.021,0,0,0,2.586-1.217,4.839,4.839,0,0,0,.883-1.719l.748-2.069a23.566,23.566,0,0,0,1.138-3.859,7.956,7.956,0,0,0-.2-3.978.8.8,0,0,0-.191.326c.183-1.154.358-2.315.541-3.477.056-.342.1-.692.151-1.05.239,3.1-.215,6.214-.072,9.318a10.872,10.872,0,0,0-.31,1.743c.207,2.849,1.392,5.96,3.692,7.655a3.781,3.781,0,0,0,1.265.66,4.469,4.469,0,0,0,1.3,0,16.631,16.631,0,0,0,4.965-.939,6.1,6.1,0,0,0,3.573-3.39,7.957,7.957,0,0,0,.358-2.451,9.416,9.416,0,0,0-.231-2.586,19.713,19.713,0,0,0-1.305-3.016,28.785,28.785,0,0,1-1.48-4.44l-.692-2.522c-.191-.716-.39-1.432-.637-2.132a3.573,3.573,0,0,0-.883-1.679c-.286-.223-.477-.239-.6-.111v-.271a28.54,28.54,0,0,0,.183-2.952c-.191-1.591-1.456-2.888-2.276-4.3a8.407,8.407,0,0,1-.907-2.276c-.048-.175-.08-.342-.111-.525a1.853,1.853,0,0,1,.454-.294l1.416.8c-1.249-9.389-.589-19.232-4.233-27.969-1.591-3.8-4.655-7.766-4.313-11.864a3.342,3.342,0,0,1,.374-5.331c.613-.334,1.369-.493,1.79-1.058a2.887,2.887,0,0,0,.406-1.026,162.787,162.787,0,0,1,7.862-23.593c.708-1.679,1.44-3.342,2.18-5l2.467-5.61,3.008-6.827c1.018-2.3,2.045-4.925,1.082-7.241-.382-.915-1.058-1.782-.963-2.761a17.354,17.354,0,0,1,.589-1.822,4.535,4.535,0,0,0-.151-1.981c-.2-.859-.422-1.719-.652-2.57a14.323,14.323,0,0,1,1.918.366c.382-.645-.231-1.393-.6-2.045a6.914,6.914,0,0,1-.692-2.841l-.8-8.029a14.246,14.246,0,0,1-.064-3.342c.159-1.178.613-2.3.843-3.477.438-2.252,0-4.575.143-6.875a30.822,30.822,0,0,1,1.05-5.984c.072-.294.135-.581.207-.875a4.776,4.776,0,0,0,1.154.2h.987a3.18,3.18,0,0,0,.438-.111h.1a4.8,4.8,0,0,0,.469-.183c-.191-.406-.366-.8-.533-1.225-.072-.167-.135-.334-.2-.5s-.183-.469-.263-.708-.159-.438-.231-.652-.119-.366-.175-.549-.151-.5-.223-.8-.143-.525-.215-.8l.119-.247a6.977,6.977,0,0,0,1.313.9c1.591,2.745,3.032,5.57,4.36,8.419a2.675,2.675,0,0,0,.406-1.026,4.916,4.916,0,0,0,.565.724,8.437,8.437,0,0,0,1.854,1.361,4.774,4.774,0,0,0,2.2.8,4.1,4.1,0,0,0,2.809-1.217c2.315-2.029,3.469-5.045,4.543-7.957a59.9,59.9,0,0,0,3.422-11.721c.652-4.321.374-8.808,1.591-13-1.106-2.2-1.806-4.623-3.048-6.748a30.179,30.179,0,0,1-2.1-3.939,13.607,13.607,0,0,1-.374-9.1,1.249,1.249,0,0,0-1.456.08,3.046,3.046,0,0,0-.875,1.273,11.29,11.29,0,0,0-.867,5.347,2.133,2.133,0,0,1-.151,1.3,1.639,1.639,0,0,1-1.416.6,12.205,12.205,0,0,1-3.278-.6,30.459,30.459,0,0,0-9.135-.891,7.25,7.25,0,0,0-.8-.8l-.342-.278-.35-.271-.175-.143a3.974,3.974,0,0,1-.334-.294,2.2,2.2,0,0,1-.8-1.393,1.786,1.786,0,0,1,0-.207,1.558,1.558,0,0,1,0-.191,2.693,2.693,0,0,1,.183-.557,3.733,3.733,0,0,1,.175-.358l.088-.183c0-.056.056-.119.088-.175a5.258,5.258,0,0,0,.255-.668,4.875,4.875,0,0,0,.167-.692,5.2,5.2,0,0,0,.072-.708q0-.358,0-.716v-.358a7.232,7.232,0,0,0-.294-1.416,7.856,7.856,0,0,0-.382-1.018,11.263,11.263,0,0,0-.676-1.257,19.238,19.238,0,0,0-1.7-2.315l-.469-.549-.477-.541a18.9,18.9,0,0,1-1.385-1.695,6.585,6.585,0,0,1-.8-1.416c-.064-.167-.119-.334-.167-.509a5.178,5.178,0,0,1-.143-.987v-.326a12.261,12.261,0,0,1,.064-1.329c.064-.621.151-1.249.239-1.886.056-.422.119-.843.175-1.265a4.24,4.24,0,0,1,.08-.629c.048-.422.1-.843.127-1.265a12.125,12.125,0,0,0-.207-3.684,6.974,6.974,0,0,0-.374-1.178,7.473,7.473,0,0,0-.8-1.432,10.343,10.343,0,0,0-4.424-3.445,20.368,20.368,0,0,0-4.05-1.3c-.557-.119-1.106-.223-1.655-.31-8.275-1.329-17.06,1.186-22.28,7.957a30.871,30.871,0,0,0-6.023,11.8,16.845,16.845,0,0,0,1.9,12.866c1.026,1.591,2.387,2.928,3.286,4.567.748,1.337,1.194,2.841,2,4.146a9.787,9.787,0,0,0,4.416,3.716l-.35.318a10.723,10.723,0,0,0-2.475.048c-.843.143-1.663.469-2.514.573-1.05.135-2.125-.072-3.183.064-1.957.255-3.565,1.591-5.053,2.9-1.743,1.52-3.612,3.294-3.748,5.57v.064l-1.17,1.591a6.276,6.276,0,0,0-.732,1.154c-.469,1.106-.207,2.387-.462,3.565a7.623,7.623,0,0,1-.923,2.125,47.791,47.791,0,0,1-3.978,5.936,10.057,10.057,0,0,1-2.475,2.451,4.456,4.456,0,0,1-2.578.732,16.527,16.527,0,0,1-3.772-2.522,24.321,24.321,0,0,1-3.334-4.146c-1.894-2.729,3.979,5.435,2.085,2.7l-16.98-28.3a23.074,23.074,0,0,1-.668-4.026c0-.517-.215-1.2-.74-1.217a.9.9,0,0,0-.6.286,3.453,3.453,0,0,0-1.106,2.944,4.082,4.082,0,0,0-2.6.462,1.488,1.488,0,0,0-.326,2.117v.215a1.13,1.13,0,0,0-.6,1.194,4.042,4.042,0,0,0-2.793.135c-.835.469-1.154,1.846-.342,2.387a2.443,2.443,0,0,0-1.559,2.308Zm106.369,4.058a13.139,13.139,0,0,0,1.488.382,23.747,23.747,0,0,1,4.615,1.591,2.531,2.531,0,0,1,1.2.9,2.674,2.674,0,0,1-.143,2.26l-2.1,5.673c-.334.891-.66,1.782-1.074,2.634-.159.342-.342.684-.525,1.018q-.1-.286-.191-.549a46.56,46.56,0,0,1-1.512-5.283c-.35-1.544-.645-3.1-.891-4.663a22.788,22.788,0,0,0-.883-3.963Zm-2.2-4.448.159.111a1.791,1.791,0,0,1,.549.382.852.852,0,0,1,0,.8Zm-3.8-5.466,2.514.366a3.3,3.3,0,0,1,1.695.581,1.138,1.138,0,0,1,.231,1.591,3.791,3.791,0,0,1-.557.374,1.591,1.591,0,0,0-.6,1.647,17.83,17.83,0,0,0-1.44-2.236,11.064,11.064,0,0,0-1.679-1.719C972.829,465.225,972.781,465.018,972.718,464.819ZM948.552,645.706a8.97,8.97,0,0,0,.931,0,8.932,8.932,0,0,0-.151,2.26Z" transform="translate(-195.885 -149.616)" fill="url(#linear-gradient)"/>
    <path id="Tracé_27" data-name="Tracé 27" d="M964.915,426.132c4.368.7,9.222,2.387,10.893,6.477,1.257,3.1.286,6.573,0,9.9a7.512,7.512,0,0,0,.1,2.634,9.238,9.238,0,0,0,2.307,3.62,19.289,19.289,0,0,1,3.326,4.655,6.779,6.779,0,0,1,.223,5.57,4.05,4.05,0,0,0-.549,1.464c-.056,1.138,1.13,1.854,2.005,2.578,3.278,2.713,3.135,7.655,3.183,11.935a60.25,60.25,0,0,0,5.7,25.176,7.694,7.694,0,0,1-8.609-1.122,28.991,28.991,0,0,0,1.957,5.634c-2.777,1.345-6.119-.867-7.5-3.612s-1.591-5.952-2.546-8.864-2.777-5.482-3.573-8.419a8.091,8.091,0,0,0-.995-2.817,7.161,7.161,0,0,0-1.751-1.488,17.028,17.028,0,0,1-6.167-8.371,32.8,32.8,0,0,1-10.344,1.194c-3.485-.31-6.994-1.886-8.816-4.846-.8-1.3-1.249-2.809-2-4.146-.915-1.639-2.268-2.984-3.294-4.559a16.833,16.833,0,0,1-1.894-12.851,30.638,30.638,0,0,1,6.023-11.784C947.863,427.318,956.648,424.8,964.915,426.132Z" transform="translate(-208.906 -149.839)" fill="#3a3768"/>
    <path id="Tracé_28" data-name="Tracé 28" d="M964.915,426.132c4.368.7,9.222,2.387,10.893,6.477,1.257,3.1.286,6.573,0,9.9a7.512,7.512,0,0,0,.1,2.634,9.238,9.238,0,0,0,2.307,3.62,19.289,19.289,0,0,1,3.326,4.655,6.779,6.779,0,0,1,.223,5.57,4.05,4.05,0,0,0-.549,1.464c-.056,1.138,1.13,1.854,2.005,2.578,3.278,2.713,3.135,7.655,3.183,11.935a60.25,60.25,0,0,0,5.7,25.176,7.694,7.694,0,0,1-8.609-1.122,28.991,28.991,0,0,0,1.957,5.634c-2.777,1.345-6.119-.867-7.5-3.612s-1.591-5.952-2.546-8.864-2.777-5.482-3.573-8.419a8.091,8.091,0,0,0-.995-2.817,7.161,7.161,0,0,0-1.751-1.488,17.028,17.028,0,0,1-6.167-8.371,32.8,32.8,0,0,1-10.344,1.194c-3.485-.31-6.994-1.886-8.816-4.846-.8-1.3-1.249-2.809-2-4.146-.915-1.639-2.268-2.984-3.294-4.559a16.833,16.833,0,0,1-1.894-12.851,30.638,30.638,0,0,1,6.023-11.784C947.863,427.318,956.648,424.8,964.915,426.132Z" transform="translate(-208.906 -149.839)" fill="#3f3d56"/>
    <path id="Tracé_29" data-name="Tracé 29" d="M1003.583,492.941c.247,1.591.541,3.119.9,4.671a44.674,44.674,0,0,0,1.5,5.268,5.061,5.061,0,0,1,.47,2.387,4.461,4.461,0,0,1-.581,1.448c-2,3.541-4.687,6.962-4.917,11.02a5.93,5.93,0,0,1-.541,2.936q-2.316-4.965-5.1-9.692c-1.941-3.294-4.1-6.62-4.655-10.408a19.733,19.733,0,0,1,.064-5.347,11.642,11.642,0,0,1,1.926-5.626c1.313-1.719,4.933-4.321,7.273-3.788C1002.668,486.48,1003.233,490.721,1003.583,492.941Z" transform="translate(-220.027 -162.111)" fill="#f86d70"/>
    <path id="Tracé_30" data-name="Tracé 30" d="M909.094,508.739a23.71,23.71,0,0,1-7.344-4.106,23.957,23.957,0,0,1-3.334-4.138l-6.135-8.864c-1.456-2.109-2.952-4.321-3.262-6.859a22.573,22.573,0,0,1-6.135-13.925c0-.525-.207-1.2-.732-1.217a.923.923,0,0,0-.6.286,3.461,3.461,0,0,0-1.1,2.944,4.082,4.082,0,0,0-2.6.454c-.732.525-.923,1.822-.135,2.26a1.122,1.122,0,0,0-.8,1.265,3.978,3.978,0,0,0-2.793.135c-.8.469-1.154,1.838-.342,2.387a2.387,2.387,0,0,0-1.591,2.331,4.678,4.678,0,0,0,1.058,2.745c2.387,3.183,6.525,4.44,9.254,7.289a21.136,21.136,0,0,1,2.387,3.183l7.917,12.047c2.514,3.827,5.1,7.726,8.689,10.575a7.862,7.862,0,0,0,3.23,1.719,3.573,3.573,0,0,0,3.4-.939,5.545,5.545,0,0,0,.995-3.39C909.309,512.892,908.959,510.784,909.094,508.739Z" transform="translate(-195.854 -158.816)" fill="#a1616a"/>
    <path id="Tracé_31" data-name="Tracé 31" d="M951.529,727.243a6.882,6.882,0,0,0-.844,1.026,3.589,3.589,0,0,0-.358,2.936,3.979,3.979,0,0,0,1.918,2.268,3.753,3.753,0,0,1,.6.35,3.576,3.576,0,0,0,.374.318,1.447,1.447,0,0,0,.8.151,28.969,28.969,0,0,0,6.262-1.066,5.02,5.02,0,0,0,2.586-1.217,5.148,5.148,0,0,0,.883-1.711l.74-2.069a24.3,24.3,0,0,0,1.146-3.851,8.02,8.02,0,0,0-.207-3.979,1.3,1.3,0,0,0-.278.8,8.808,8.808,0,0,1-1.591,3.859,3.93,3.93,0,0,1-.621.8,4.05,4.05,0,0,1-1.862.8,22.882,22.882,0,0,1-3.978.509,1.24,1.24,0,0,1-.541-.064.947.947,0,0,1-.454-.565,2.388,2.388,0,0,1,0-1.591c.358-1,1.345-1.663,1.822-2.626.35-.708-.135-1.488-.859-.891a22.056,22.056,0,0,0-1.822,1.934Z" transform="translate(-211.784 -210.242)" fill="#3f3d56"/>
    <path id="Tracé_32" data-name="Tracé 32" d="M959.332,709.064c.215,3.334.358,6.931-1.464,9.723-.652,1.011-1.536,1.854-2.284,2.8a3.285,3.285,0,0,0-.8,1.687,2.581,2.581,0,0,0,2.244,2.491,7.424,7.424,0,0,0,3.6-.517,8.681,8.681,0,0,0,3.063-1.44c1.591-1.345,2.005-3.581,2.323-5.634l.74-4.774a15.05,15.05,0,0,0,.271-3.477,15.485,15.485,0,0,0-.931-3.748l-1.225-3.581a1.687,1.687,0,0,0-.541-.891,1.591,1.591,0,0,0-.931-.167c-1.17.056-4.122.485-4.687,1.719C958.2,704.37,959.252,707.807,959.332,709.064Z" transform="translate(-212.728 -206.386)" fill="#ee8e9e"/>
    <path id="Tracé_33" data-name="Tracé 33" d="M959.332,709.064c.215,3.334.358,6.931-1.464,9.723-.652,1.011-1.536,1.854-2.284,2.8a3.285,3.285,0,0,0-.8,1.687,2.581,2.581,0,0,0,2.244,2.491,7.424,7.424,0,0,0,3.6-.517,8.681,8.681,0,0,0,3.063-1.44c1.591-1.345,2.005-3.581,2.323-5.634l.74-4.774a15.05,15.05,0,0,0,.271-3.477,15.485,15.485,0,0,0-.931-3.748l-1.225-3.581a1.687,1.687,0,0,0-.541-.891,1.591,1.591,0,0,0-.931-.167c-1.17.056-4.122.485-4.687,1.719C958.2,704.37,959.252,707.807,959.332,709.064Z" transform="translate(-212.728 -206.386)" opacity="0.05"/>
    <path id="Tracé_34" data-name="Tracé 34" d="M927.549,584.708a.3.3,0,0,0,0,.088,3.98,3.98,0,0,0,.446,1.353,19.558,19.558,0,0,1,1.719,6.962,5.893,5.893,0,0,0,.231,1.759,9.393,9.393,0,0,0,.9,1.544c1.058,1.727,1.305,3.8,1.663,5.8a45.849,45.849,0,0,0,2.029,7.607c1.217,3.366,2.857,6.819,2.3,10.344a10.35,10.35,0,0,0-.318,2.546,7.353,7.353,0,0,0,.995,2.682,24.883,24.883,0,0,1,1.122,2.483c.326.843.676,1.838.947,2.769.326,1.146.549,2.5-.207,3.414a3.876,3.876,0,0,0-.613.748,1.989,1.989,0,0,0,0,1.289q.645,2.721,1.385,5.435c.382,1.416.8,2.825,1.2,4.233,3.071,10.3,6.541,20.489,8.6,31.032.294,1.52,2.236,2.61,3.748,2.936a4.885,4.885,0,0,0,4.3-1.154,2.644,2.644,0,0,0,.3-.294c1.591-1.7,1.806-4.313,1.695-6.668-.533-10.853-6-20.784-8.6-31.335a60.342,60.342,0,0,1-1.687-11.625c-.613-13.105-.851-26.95,2.849-39.53.8-2.618,1.679-5.57.294-7.957a7.761,7.761,0,0,0-4.09-2.992,26.338,26.338,0,0,0-20.442.525,6.386,6.386,0,0,0,0,.8,8.06,8.06,0,0,1-.414,3.612,4.433,4.433,0,0,0-.358,1.6Z" transform="translate(-207.163 -180.816)" fill="#3f3d56"/>
    <path id="Tracé_35" data-name="Tracé 35" d="M980.98,714.23l.692,2.522a28.192,28.192,0,0,0,1.472,4.44,19.334,19.334,0,0,1,1.313,3.008,9.73,9.73,0,0,1,.223,2.586,7.9,7.9,0,0,1-.358,2.443,6.1,6.1,0,0,1-3.573,3.39,16.871,16.871,0,0,1-4.957.931,3.979,3.979,0,0,1-1.3,0,3.637,3.637,0,0,1-1.265-.66c-2.3-1.687-3.485-4.774-3.692-7.647a9.4,9.4,0,0,1,.39-1.949c.175-.239,1.918.74,1.17,1.591-1.1,1.217,2.125.589,3.764.485a15.112,15.112,0,0,0,2.133-.35l2.65-.565c.867-.191,1.87-.485,2.172-1.321s-.366-1.822-.883-2.626c-1.392-2.14-1.743-4.774-2.069-7.3-.064-.5-.684-3.724.6-2.721a3.579,3.579,0,0,1,.891,1.679C980.59,712.806,980.781,713.514,980.98,714.23Z" transform="translate(-215.741 -208.179)" fill="#3f3d56"/>
    <path id="Tracé_36" data-name="Tracé 36" d="M942.238,646.776c.8-.915.533-2.268.207-3.406-.127-.43-.255-.851-.4-1.273l10.416-3.517c0,.931.08,1.862.119,2.793a60.51,60.51,0,0,0,1.687,11.633c2.6,10.543,8.068,20.473,8.6,31.319.119,2.5-.143,5.291-1.989,6.978a4.925,4.925,0,0,1-4.313,1.146c-1.5-.326-3.453-1.416-3.748-2.936-2.061-10.543-5.57-20.736-8.6-31.032q-1.432-4.774-2.586-9.676a2.021,2.021,0,0,1,0-1.281,3.881,3.881,0,0,1,.6-.748Z" transform="translate(-210.02 -193.527)" opacity="0.05"/>
    <path id="Tracé_37" data-name="Tracé 37" d="M976.622,699.752c.8,1.416,2.077,2.674,2.268,4.3a24.59,24.59,0,0,1-.183,2.952,9.259,9.259,0,0,0,.438,2.387q1.512,5.49,3.5,10.837a2.968,2.968,0,0,1,.278,1.472,2.594,2.594,0,0,1-1.727,1.719c-2.475,1.058-5.275.987-7.957.875a4.162,4.162,0,0,1-2.244-.525,3.9,3.9,0,0,1-1.265-3.127c-.183-3.382.39-6.779,0-10.145-.127-1.225-.39-2.435-.581-3.644a10.687,10.687,0,0,1,.159-5.092,11.654,11.654,0,0,1,1.9-3.183,9.963,9.963,0,0,1,2.65-2.642c.318-.191,1.217-.8,1.536-.406.167.183.1.676.119.907a9.052,9.052,0,0,0,.183,1.05A8.633,8.633,0,0,0,976.622,699.752Z" transform="translate(-215.615 -205.135)" fill="#ee8e9e"/>
    <path id="Tracé_38" data-name="Tracé 38" d="M948.073,588.929a2.881,2.881,0,0,1,.2,2.387c-.35,1.44-.923,2.817-1.392,4.225a58.789,58.789,0,0,0-1.8,7.679c-.438,2.347-1.361,4.957-.979,7.32a52.154,52.154,0,0,0-5.57,17.354c-.215,1.552,3.239,3.565,3.183,5.132-.127,3.119-2.618,3.366-.8,5.856.088.127-.692,2.912-.589,3.032.748.9,1.695,1.591,2.5,2.459a18.8,18.8,0,0,1,2.634,3.859c4.774,8.578,11.609,18.3,9.493,27.849a1.7,1.7,0,0,0,.907,1.719,4.687,4.687,0,0,0,2.005.462h.334c1.591-1.7,1.806-4.313,1.695-6.668-.533-10.853-6-20.784-8.6-31.335a60.346,60.346,0,0,1-1.687-11.625c-.613-13.105-.852-26.95,2.849-39.53.8-2.618,1.679-5.57.294-7.957a7.761,7.761,0,0,0-4.09-2.992,26.338,26.338,0,0,0-20.442.525,6.386,6.386,0,0,0,0,.8,8.06,8.06,0,0,1-.414,3.612,4.433,4.433,0,0,0-.406,1.591s-.191-2.109-.191-2.077c4.257.613,8.7,3.39,12.954,3.979a29.592,29.592,0,0,1,6.493,1.432A2.817,2.817,0,0,1,948.073,588.929Z" transform="translate(-207.095 -180.812)" opacity="0.05"/>
    <path id="Tracé_39" data-name="Tracé 39" d="M977.335,562c.573,1.822,1.082,3.66,1.512,5.514a4.5,4.5,0,0,1,.151,1.973,17.334,17.334,0,0,0-.589,1.822c-.1.979.581,1.838.963,2.753.963,2.323-.064,4.941-1.074,7.241l-3.016,6.819-2.467,5.57c-.732,1.663-1.464,3.326-2.172,5.005a162.74,162.74,0,0,0-7.861,23.561,2.888,2.888,0,0,1-.406,1.026c-.422.557-1.178.716-1.79,1.058a3.334,3.334,0,0,0-.366,5.323c-.35,4.1,2.721,8.052,4.3,11.848,3.636,8.753,2.976,18.556,4.233,27.929l-1.416-.8c-1.361.621-1.313,2.546-2.037,3.843-1.1,1.957-3.78,2.236-6.016,2.085a4.693,4.693,0,0,1-2.013-.461,1.7,1.7,0,0,1-.9-1.719c2.109-9.548-4.774-19.3-9.5-27.85a18.545,18.545,0,0,0-2.634-3.851c-.8-.851-1.743-1.591-2.5-2.467-2.093-2.514-2.387-6.063-2.22-9.333a52.292,52.292,0,0,1,5.944-22.041c-.374-2.387.549-4.973.987-7.32a57.5,57.5,0,0,1,1.79-7.679c.469-1.408,1.042-2.785,1.392-4.225a2.881,2.881,0,0,0-.191-2.387,2.8,2.8,0,0,0-1.345-.867,29.941,29.941,0,0,0-6.493-1.432l-14.625-2.1a37.2,37.2,0,0,1-.621-9.373,14.41,14.41,0,0,1,10.344-12.063,2.172,2.172,0,0,1,1.9.119A76.252,76.252,0,0,1,977.335,562Z" transform="translate(-206.9 -177.085)" fill="#3f3d56"/>
    <path id="Tracé_40" data-name="Tracé 40" d="M968.377,461.79a7.162,7.162,0,0,0,.637,4.185,6.54,6.54,0,0,0,1.663,1.838A12.325,12.325,0,0,0,975.5,470.2a5.134,5.134,0,0,1,2.88,1.265c1.026,1.241.342,3.111-.533,4.464a11.416,11.416,0,0,1-6.318,5.228c-2.156.589-4.464.231-6.668.613-1.591.279-3.1.939-4.679,1.313a13.806,13.806,0,0,1-12.731-3.541c2.339-1.8,4.774-3.716,5.992-6.413A9.119,9.119,0,0,0,953.9,467c-.565-2-1.83-3.979-1.432-5.984s2.387-3.437,4.384-4.13a28.119,28.119,0,0,1,5.514-1.114c1.026-.143,7.575-1.591,7.957-.875.231.406-1.13,2.793-1.3,3.318A12.769,12.769,0,0,0,968.377,461.79Z" transform="translate(-211.23 -155.739)" fill="#a1616a"/>
    <path id="Tracé_41" data-name="Tracé 41" d="M968.377,461.79a7.162,7.162,0,0,0,.637,4.185,6.54,6.54,0,0,0,1.663,1.838A12.325,12.325,0,0,0,975.5,470.2a5.134,5.134,0,0,1,2.88,1.265c1.026,1.241.342,3.111-.533,4.464a11.416,11.416,0,0,1-6.318,5.228c-2.156.589-4.464.231-6.668.613-1.591.279-3.1.939-4.679,1.313a13.806,13.806,0,0,1-12.731-3.541c2.339-1.8,4.774-3.716,5.992-6.413A9.119,9.119,0,0,0,953.9,467c-.565-2-1.83-3.979-1.432-5.984s2.387-3.437,4.384-4.13a28.119,28.119,0,0,1,5.514-1.114c1.026-.143,7.575-1.591,7.957-.875.231.406-1.13,2.793-1.3,3.318A12.769,12.769,0,0,0,968.377,461.79Z" transform="translate(-211.23 -155.739)" opacity="0.05"/>
    <circle id="Ellipse_8" data-name="Ellipse 8" cx="13.28" cy="13.28" r="13.28" transform="translate(735.631 284.282)" fill="#a1616a"/>
    <path id="Tracé_42" data-name="Tracé 42" d="M963.493,479.357l-9,1.512a33.713,33.713,0,0,1-6.732.676,19.254,19.254,0,0,0-3.708,0c-.851.143-1.663.469-2.522.573-1.05.135-2.117-.064-3.183.072-1.957.247-3.565,1.591-5.053,2.9-1.743,1.512-3.612,3.286-3.74,5.57a1.592,1.592,0,0,0,.1.8,2.332,2.332,0,0,0,.668.7c1.655,1.353,2.586,3.382,3.764,5.172a19.979,19.979,0,0,0,4.472,4.822c.4-.255,1.146.414.971.843s-.6.74-.74,1.186c-.318,1.019.939,1.766,1.456,2.705s.263,2.117.318,3.183.533,2.331.692,3.525c.358,2.761-1,5.673,0,8.291a2.6,2.6,0,0,0-2.586,2.013,7.6,7.6,0,0,0,.1,3.533,4.862,4.862,0,0,0-2.387,4.44.8.8,0,0,1-.573,1.058,4.48,4.48,0,0,0-2.761,4.162,2.046,2.046,0,0,1-.079.883,1.942,1.942,0,0,1-.652.668,5.188,5.188,0,0,0-1.934,4.058,2.976,2.976,0,0,0,1.369,2.658,24.766,24.766,0,0,0,6.047,1.8,54.339,54.339,0,0,0,5.856,1.034,52.52,52.52,0,0,0,5.482.167l12.047-.048c3.382,0,6.771,0,10.153-.255,3.183-.207,6.366-.6,9.429.223.382-.645-.231-1.393-.6-2.045a6.851,6.851,0,0,1-.692-2.833l-.756-8.029a14.108,14.108,0,0,1-.064-3.326c.167-1.186.613-2.308.844-3.477.438-2.252,0-4.575.143-6.867a30.645,30.645,0,0,1,1.05-5.976l2.387-9.827a37.945,37.945,0,0,1,1.178-4.925q2.745-7.082,5.769-14.036a1.448,1.448,0,0,0-.1-1.241l-1.989-3.573a22.806,22.806,0,0,0-1.822-2.9,11.5,11.5,0,0,0-6.724-4.13,11.888,11.888,0,0,0-7.814,1.162c-.931.493-1.79,1.106-2.737,1.591A11.2,11.2,0,0,1,963.493,479.357Z" transform="translate(-207.572 -159.908)" fill="#f86d70"/>
    <path id="Tracé_43" data-name="Tracé 43" d="M927.935,491.5l-3.135,4.185a5.33,5.33,0,0,0-.732,1.154c-.477,1.1-.215,2.387-.469,3.549a7.406,7.406,0,0,1-.915,2.125,49,49,0,0,1-3.979,5.936,10.638,10.638,0,0,1-2.474,2.451,4.106,4.106,0,0,1-3.342.589,2.093,2.093,0,0,1,1.1.995,12.143,12.143,0,0,1,.8,7.766,7.958,7.958,0,0,1-.875,2.546,3.819,3.819,0,0,1-2,1.727,2.944,2.944,0,0,0,3.469,2.49,5.8,5.8,0,0,0,1.719-.859l5.037-3.262a13.393,13.393,0,0,0,2.347-1.758c.939-.939,1.591-2.125,2.514-3.1,1.591-1.647,3.851-2.634,4.957-4.623a21.761,21.761,0,0,0,1.233-4.074c.278-.883.692-1.727.955-2.618a11.7,11.7,0,0,0-1.035-8.387C931.81,495.749,929.8,493.7,927.935,491.5Z" transform="translate(-203.969 -163.293)" fill="#f86d70"/>
    <path id="Tracé_44" data-name="Tracé 44" d="M946.541,439.889a17.409,17.409,0,0,1,4.671-4.862,15.941,15.941,0,0,1,8.426-3.565,8.96,8.96,0,0,1,3.788.621c.064-3.756.995-6.246,3.334-5.872,4.368.7,9.222,2.387,10.893,6.477,1.257,3.1.286,6.572,0,9.9a7.512,7.512,0,0,0,.1,2.634,9.238,9.238,0,0,0,2.307,3.62,19.289,19.289,0,0,1,3.326,4.655,6.779,6.779,0,0,1,.223,5.57,4.05,4.05,0,0,0-.549,1.464c-.056,1.138,1.13,1.854,2.005,2.578,3.278,2.713,3.135,7.655,3.183,11.935a60.251,60.251,0,0,0,5.7,25.176,7.694,7.694,0,0,1-8.609-1.122,28.991,28.991,0,0,0,1.957,5.634c-2.777,1.345-6.119-.867-7.5-3.612s-1.591-5.952-2.546-8.864-2.777-5.482-3.573-8.419a8.091,8.091,0,0,0-.995-2.817,7.161,7.161,0,0,0-1.751-1.488c-2.857-2.053,1.353-17.6.239-20.935-1.663.358-4.719-7.663-6.461-15.819a8.235,8.235,0,0,1-3.78.382,4.553,4.553,0,0,0-1.353-.1,3.6,3.6,0,0,0-1.178.477,29.057,29.057,0,0,1-4.018,2.069c-2.88,1.074-6.055.931-9.119.8a9.039,9.039,0,0,1,1.289-6.517Z" transform="translate(-210.751 -149.918)" fill="#3a3768"/>
    <path id="Tracé_45" data-name="Tracé 45" d="M946.541,439.889a17.409,17.409,0,0,1,4.671-4.862,15.941,15.941,0,0,1,8.426-3.565,8.96,8.96,0,0,1,3.788.621c.064-3.756.995-6.246,3.334-5.872,4.368.7,9.222,2.387,10.893,6.477,1.257,3.1.286,6.572,0,9.9a7.512,7.512,0,0,0,.1,2.634,9.238,9.238,0,0,0,2.307,3.62,19.289,19.289,0,0,1,3.326,4.655,6.779,6.779,0,0,1,.223,5.57,4.05,4.05,0,0,0-.549,1.464c-.056,1.138,1.13,1.854,2.005,2.578,3.278,2.713,3.135,7.655,3.183,11.935a60.251,60.251,0,0,0,5.7,25.176,7.694,7.694,0,0,1-8.609-1.122,28.991,28.991,0,0,0,1.957,5.634c-2.777,1.345-6.119-.867-7.5-3.612s-1.591-5.952-2.546-8.864-2.777-5.482-3.573-8.419a8.091,8.091,0,0,0-.995-2.817,7.161,7.161,0,0,0-1.751-1.488c-2.857-2.053,1.353-17.6.239-20.935-1.663.358-4.719-7.663-6.461-15.819a8.235,8.235,0,0,1-3.78.382,4.553,4.553,0,0,0-1.353-.1,3.6,3.6,0,0,0-1.178.477,29.057,29.057,0,0,1-4.018,2.069c-2.88,1.074-6.055.931-9.119.8a9.039,9.039,0,0,1,1.289-6.517Z" transform="translate(-210.751 -149.918)" fill="#3f3d56"/>
    <g id="Groupe_2" data-name="Groupe 2" transform="translate(736.904 276.23)" opacity="0.1">
      <path id="Tracé_46" data-name="Tracé 46" d="M997.567,500.188a60.377,60.377,0,0,1-5.7-25.176c0-4.257.119-9.2-3.183-11.935-.875-.724-2.061-1.44-2.013-2.578a4.065,4.065,0,0,1,.557-1.464,6.811,6.811,0,0,0-.223-5.57,19.289,19.289,0,0,0-3.326-4.655,9.254,9.254,0,0,1-2.315-3.62,7.907,7.907,0,0,1-.1-2.634c.326-3.326,1.3-6.8,0-9.9-1.591-3.979-6.214-5.665-10.471-6.405a2.387,2.387,0,0,1,1.146-.072c4.368.7,9.222,2.387,10.893,6.477,1.257,3.1.286,6.573,0,9.9a7.511,7.511,0,0,0,.1,2.634,9.237,9.237,0,0,0,2.307,3.62,19.287,19.287,0,0,1,3.326,4.655,6.779,6.779,0,0,1,.223,5.57,4.05,4.05,0,0,0-.549,1.464c-.056,1.138,1.13,1.854,2.005,2.578,3.278,2.713,3.135,7.655,3.183,11.935a60.251,60.251,0,0,0,5.7,25.176,7.44,7.44,0,0,1-4.217.8A7.2,7.2,0,0,0,997.567,500.188Z" transform="translate(-952.905 -426.141)"/>
      <path id="Tracé_47" data-name="Tracé 47" d="M995.587,523.424a28.47,28.47,0,0,1-1.957-5.634,7.265,7.265,0,0,0,1.886,1.249,29.6,29.6,0,0,0,1.591,4.384,4.169,4.169,0,0,1-2.57.326,4.045,4.045,0,0,0,1.05-.326Z" transform="translate(-957.569 -444.865)"/>
      <path id="Tracé_48" data-name="Tracé 48" d="M965.52,433.444a9.167,9.167,0,0,0-2.53-.6h.3a8.9,8.9,0,0,1,2.244.167C965.528,433.141,965.52,433.284,965.52,433.444Z" transform="translate(-951.309 -427.509)"/>
      <path id="Tracé_49" data-name="Tracé 49" d="M953.482,449.942a29.139,29.139,0,0,0,4.026-2.069,3.534,3.534,0,0,1,1.178-.477,4.345,4.345,0,0,1,1.241.072,4.982,4.982,0,0,0-.859.406,29.046,29.046,0,0,1-4.018,2.069,18.126,18.126,0,0,1-6.74.875A15.969,15.969,0,0,0,953.482,449.942Z" transform="translate(-948.31 -430.48)"/>
      <path id="Tracé_50" data-name="Tracé 50" d="M967.312,447l.072.358a7.8,7.8,0,0,1-1.973.056,8.753,8.753,0,0,0,1.9-.414Z" transform="translate(-951.804 -430.403)"/>
    </g>
    <path id="Tracé_51" data-name="Tracé 51" d="M1000.248,512.167a4.854,4.854,0,0,0,1.3,3.883,8.648,8.648,0,0,0,1.846,1.361,5.013,5.013,0,0,0,2.2.8,4.146,4.146,0,0,0,2.809-1.225c2.315-2.029,3.469-5.037,4.536-7.917a59.4,59.4,0,0,0,3.43-11.7c.652-4.321.374-8.8,1.591-12.994-1.1-2.2-1.8-4.615-3.048-6.732a31.721,31.721,0,0,1-2.1-3.939,13.607,13.607,0,0,1-.374-9.087,1.226,1.226,0,0,0-1.448.072,3.046,3.046,0,0,0-.875,1.273,11.277,11.277,0,0,0-.867,5.339,2.124,2.124,0,0,1-.151,1.3,1.639,1.639,0,0,1-1.416.6,12.573,12.573,0,0,1-3.278-.589,30.386,30.386,0,0,0-10.1-.836,4.774,4.774,0,0,0-1.973.477,1.83,1.83,0,0,0-1.011,1.647l8.068,1.186a3.335,3.335,0,0,1,1.7.581,1.154,1.154,0,0,1,.231,1.591,3.181,3.181,0,0,1-.557.366,1.663,1.663,0,0,0,.064,2.658,1.7,1.7,0,0,1,.549.382c.334.446-.1,1.026-.247,1.591a1.973,1.973,0,0,0,.971,2.013,7.1,7.1,0,0,0,2.252.756,23.73,23.73,0,0,1,4.615,1.591,2.531,2.531,0,0,1,1.2.9,2.7,2.7,0,0,1-.143,2.26l-2.1,5.665c-.334.891-.66,1.774-1.074,2.634-.533,1.106-1.194,2.148-1.743,3.254a32.491,32.491,0,0,0-1.313,3.183C1002.722,507.377,1000.614,509.1,1000.248,512.167Z" transform="translate(-220.192 -157.746)" fill="#a1616a"/>
    <path id="Tracé_52" data-name="Tracé 52" d="M540.293,249.17V516.056a88.4,88.4,0,0,0-27.555-4.249c-39.682,0-71.907,28.08-71.907,67.762s32.226,67.452,71.907,67.452,72.106-29.218,72.106-71.613V390.073H794.113V516.056a88.364,88.364,0,0,0-27.555-4.249c-39.682,0-71.907,28.08-71.907,67.762s32.226,67.452,71.907,67.452,72.106-29.218,72.106-71.613V249.17Zm253.828,99.463H584.852v-54.9H794.121Z" transform="translate(-107.728 -113.97)" fill="#d06449"/>
    <path id="Tracé_53" data-name="Tracé 53" d="M273.741,212.17V391.282a67.754,67.754,0,1,0,33.9,58.564v-169.8H375.59V212.17Z" transform="translate(-52.832 -105.904)" fill="#d06449"/>
    <path id="Tracé_57" data-name="Tracé 57" d="M369.151,212.17V268.9H301.2v169.8A67.849,67.849,0,0,1,191.24,491.93a67.857,67.857,0,0,0,121.1-42.085v-169.8H380.29V212.17Z" transform="translate(-56.737 -105.904)" opacity="0.1"/>
    <path id="Tracé_58" data-name="Tracé 58" d="M173.87,228.109l.231,1.735,7.519,1.066s.613-.462,1.591-1.09a23.371,23.371,0,0,1,7.32-3.406c3.939-.8,16.463-6.405,12.429-6.771s-3.62.469-3.62.469-4.448-4.368-9.039-.374c-3.485,3.032-11.14,6.294-14.633,7.686C174.554,227.862,173.87,228.109,173.87,228.109Z" transform="translate(-53.188 -107.106)" fill="#efb7b9"/>
    <path id="Tracé_59" data-name="Tracé 59" d="M208.767,205.387a12.731,12.731,0,0,1,3.6-.923,4.384,4.384,0,0,1,3.429,1.146c.485.5.8,1.146,1.273,1.655,2.292,2.451,6.74.621,9.5,2.522,1.695,1.178,2.22,3.4,2.825,5.379s1.7,4.154,3.724,4.575a11.044,11.044,0,0,0,2.936-.111,2.888,2.888,0,0,1,2.642.971c.939,1.424-.358,3.8,1,4.822,1.217.9,3.422-.358,4.273.891a1.862,1.862,0,0,1-.294,2.069,14.378,14.378,0,0,0-1.385,1.735,2.626,2.626,0,0,0,2.586,3.835c.859-.088,1.774-.573,2.522-.151a1.782,1.782,0,0,1,.8,1.408,3.7,3.7,0,0,1-3.326,3.891c-1.464.1-2.809-.7-4.114-1.369s-2.841-1.233-4.193-.676a6.477,6.477,0,0,0-1.687,1.186,18.469,18.469,0,0,1-5.188,3.071c-1.655.652-3.581,1.042-5.172.231-1.79-.915-2.713-3.143-4.607-3.819s-4.058.589-5.872,1.663-4.241,1.973-5.88.652c-1.766-1.424-1.225-4.281-2.3-6.278a6.166,6.166,0,0,0-1.727-1.9c-1.209-.931-2.586-1.631-3.8-2.546a6.366,6.366,0,0,1-2.594-3.644c-.358-1.806.5-3.612,1.48-5.172s2.117-3.087,2.435-4.894c.239-1.353,0-2.761.31-4.1a5.053,5.053,0,0,1,3.278-3.461c.891-.3,1.05-.223,1.5-1.011a3.183,3.183,0,0,1,2.021-1.647Z" transform="translate(-58.047 -104.325)" fill="#3f3d56"/>
    <g id="Groupe_3" data-name="Groupe 3" transform="translate(139.618 116.736)" opacity="0.1">
      <path id="Tracé_60" data-name="Tracé 60" d="M249.5,225.44a6.772,6.772,0,0,1,.143,2.387,6.453,6.453,0,0,1-.143-2.387Z" transform="translate(-208.246 -225.44)"/>
      <path id="Tracé_61" data-name="Tracé 61" d="M253.67,235.9a2.6,2.6,0,0,0-.271.875,2.689,2.689,0,0,1,.1-2.228,14.155,14.155,0,0,1,1.385-1.727,2.935,2.935,0,0,0,.4-.8l.064.072a1.862,1.862,0,0,1-.286,2.061,14.226,14.226,0,0,0-1.385,1.743Z" transform="translate(-209.014 -226.784)"/>
      <path id="Tracé_62" data-name="Tracé 62" d="M200.176,233.376c1.217.923,2.586,1.591,3.8,2.554a6.063,6.063,0,0,1,1.727,1.9c1.074,2,.533,4.854,2.3,6.278,1.639,1.321,4.074.43,5.888-.652s3.883-2.387,5.864-1.663,2.817,2.9,4.615,3.819c1.591.8,3.509.414,5.172-.231a18.539,18.539,0,0,0,5.18-3.071,6.843,6.843,0,0,1,1.687-1.194c1.361-.549,2.9,0,4.2.684a8.073,8.073,0,0,0,4.106,1.369,3.74,3.74,0,0,0,3.3-3.27,2.387,2.387,0,0,1,.175.7,3.692,3.692,0,0,1-3.3,3.915c-1.456.1-2.809-.7-4.106-1.361s-2.841-1.233-4.2-.684a7.027,7.027,0,0,0-1.687,1.186,18.565,18.565,0,0,1-5.18,3.079c-1.655.645-3.589,1.034-5.172.231-1.8-.915-2.713-3.143-4.615-3.819s-4.058.581-5.864,1.663-4.249,1.973-5.888.645c-1.766-1.424-1.225-4.273-2.3-6.278a6.127,6.127,0,0,0-1.727-1.894c-1.2-.931-2.578-1.631-3.8-2.554a6.366,6.366,0,0,1-2.6-3.644,4.3,4.3,0,0,1-.08-.955,6.652,6.652,0,0,0,2.506,3.246Z" transform="translate(-197.668 -226.398)"/>
    </g>
    <path id="Tracé_63" data-name="Tracé 63" d="M204.169,286.124l-2.729.581s2.689,4.424,6.835,1.52S204.169,286.124,204.169,286.124Z" transform="translate(-58.82 -121.126)" fill="#4c4981"/>
    <path id="Tracé_64" data-name="Tracé 64" d="M204.169,286.124l-2.729.581s2.689,4.424,6.835,1.52S204.169,286.124,204.169,286.124Z" transform="translate(-58.82 -121.126)" opacity="0.1"/>
    <path id="Tracé_65" data-name="Tracé 65" d="M279.32,336.276s3.788,1.957,7.313,4.225c2.53,1.591,4.925,3.4,5.705,4.726,1.878,3.183,11,6.636,11,6.636l9.055,6.891c2.132.708,4.209,3.3,5.061,4.464.255.35.406.573.406.573l3.628-.469,1.91-2.483s.485-5.474-3.286-5.411a5.188,5.188,0,0,1-2.125-.549c-4.058-1.79-9.731-7.44-9.731-7.44s-9.644-12.047-12.532-12.445a4.774,4.774,0,0,1-.907-.231c-2.936-1.026-7.161-4.814-7.161-4.814Z" transform="translate(-74.731 -130.148)" fill="#efb7b9"/>
    <path id="Tracé_66" data-name="Tracé 66" d="M232.262,378.064c.963,5.785,5.347,16.845,6.755,19.153,1.751,2.857,2.666,8.578,2.666,8.578l.517,3.979a4.614,4.614,0,0,0,.573,1.544,8.409,8.409,0,0,0,.509.8l7.265-2.236s-.422-1.671-1.058-3.589-1.591-4.329-2.5-5.22c-1.774-1.743-2.037-7.893-2.037-7.893s-1.48-11.824-1.934-13.312a20.529,20.529,0,0,1-.8-4.36c-.072-.8-.119-1.7-.127-2.729a55.777,55.777,0,0,0-1.146-8.753l-8.474,1.536-.223,9.477a6.318,6.318,0,0,0,.008,3.032Z" transform="translate(-65.079 -137.144)" fill="#efb7b9"/>
    <path id="Tracé_67" data-name="Tracé 67" d="M327.25,369.619c.255.35.406.573.406.573l3.628-.469,1.91-2.483s.485-5.474-3.286-5.411a5.188,5.188,0,0,1-2.125-.549c-.31,1.639,1.528,3,1.528,3s.8.557.581,3.127C329.772,369.157,328.221,369.531,327.25,369.619Z" transform="translate(-84.523 -136.565)" opacity="0.1"/>
    <path id="Tracé_68" data-name="Tracé 68" d="M326.75,368.065c.239.883,2.53,2.18,4.122,2.992.8.4,1.392.676,1.512.74.366.183,2.292-1.957,2.554-3.684s4.854-7.1,4.854-7.1a19.258,19.258,0,0,0,1.7-6.724c.175-2.347-.8-2.538-1.95-2.005a7.711,7.711,0,0,0-2.18,1.711,5.824,5.824,0,0,1-2.825,1.464,13.822,13.822,0,0,0-4.066,1.735c-1.114.716-2.2,1.591-2.387,2.387-.422,1.695,1.5,3.127,1.5,3.127s.8.557.581,3.127S326.726,367.986,326.75,368.065Z" transform="translate(-84.421 -134.674)" fill="#444053"/>
    <path id="Tracé_69" data-name="Tracé 69" d="M331.93,371.057c.8.4,1.392.676,1.512.74.366.183,2.292-1.957,2.554-3.684s4.854-7.1,4.854-7.1a19.256,19.256,0,0,0,1.7-6.724c.175-2.347-.8-2.538-1.949-2.005-.191,1.862-.66,5.482-1.591,7.368C337.85,361.9,333.2,369.108,331.93,371.057Z" transform="translate(-85.479 -134.674)" opacity="0.1"/>
    <path id="Tracé_70" data-name="Tracé 70" d="M245.52,422l-.072.135a8.412,8.412,0,0,0,.509.8l7.265-2.236s-.422-1.671-1.058-3.589c-2.872-.8-6.994,4.225-6.994,4.225Z" transform="translate(-67.754 -147.997)" opacity="0.1"/>
    <path id="Tracé_71" data-name="Tracé 71" d="M244.946,427.5s6.063,2.125,8.753,1.8c2.077-.247,2.164-1.209,2.021-3.183-.048-.637-.111-1.369-.151-2.212-.135-3.5-1.544-4.209-1.544-4.209-2.308-6.047-8.952,2.069-8.952,2.069l.342.668a7.32,7.32,0,0,0-.676,3.3,9.646,9.646,0,0,0,.207,1.766Z" transform="translate(-67.666 -148.089)" fill="#444053"/>
    <path id="Tracé_72" data-name="Tracé 72" d="M244.947,429.626s6.063,2.125,8.753,1.8c2.077-.247,2.164-1.209,2.021-3.183a6.421,6.421,0,0,1-4.941,1.416,19.439,19.439,0,0,1-6.039-1.8,9.645,9.645,0,0,0,.207,1.766Z" transform="translate(-67.667 -150.219)" opacity="0.1"/>
    <path id="Tracé_73" data-name="Tracé 73" d="M207.23,242.5l2.387,10.344.485,2.132,4.384.557,4.52.573,4.917-1.782s1.369-4.679.239-8.188a5.188,5.188,0,0,0-2.276-3,5.053,5.053,0,0,1-.947-.732,4.153,4.153,0,0,1-.8-1.138,4.7,4.7,0,0,1-.422-1.647,11.76,11.76,0,0,1,1.52-5.848s-10.424-3.557-9.612-1.257c.533,1.488-.939,4.082-2.037,5.721-.6.883-1.082,1.5-1.082,1.5Z" transform="translate(-60.003 -109.996)" fill="#efb7b9"/>
    <circle id="Ellipse_9" data-name="Ellipse 9" cx="9.055" cy="9.055" r="9.055" transform="translate(147.577 110.499)" opacity="0.1"/>
    <circle id="Ellipse_10" data-name="Ellipse 10" cx="9.055" cy="9.055" r="9.055" transform="translate(147.537 110.165)" fill="#efb7b9"/>
    <path id="Tracé_74" data-name="Tracé 74" d="M207.791,279.365a22.162,22.162,0,0,0,2.387,5.14l12.644,3.1,9.031-9.453v-.064c-.279-.883-3.724-12.031-1.233-14.776,2.61-2.857,1.591-10.917,1.591-10.917s-4.512-5.188-5.427-6.445-6.771-2.244-6.771-2.244c.294.4.565.8.8,1.138a11.14,11.14,0,0,1,1.44,3.055,4.567,4.567,0,0,1-.119,3.318,3.645,3.645,0,0,0-.31.851c-.987,4.321-5.49,3.716-7.281,3.286-.462-.111-.748-.207-.748-.207l-4.3.135-2.705.088s1.233,21.309.939,23a2.721,2.721,0,0,0,.072.987Z" transform="translate(-59.911 -112.457)" fill="#f86d70"/>
    <path id="Tracé_75" data-name="Tracé 75" d="M206.856,259.433l7.838-1.026h-.143c-.462-.111-.74-.207-.74-.207l-4.313.135-2.7.088S206.816,258.773,206.856,259.433Z" transform="translate(-59.915 -115.419)" fill="#925978"/>
    <path id="Tracé_76" data-name="Tracé 76" d="M167.52,209.239l3.4.828,5.355-.7,1.392-1.456Z" transform="translate(-11.787 -35.862)" fill="#925978"/>
    <path id="Tracé_77" data-name="Tracé 77" d="M174.63,211.246l1.536.374.629-.66Z" transform="translate(-13.24 -36.487)" fill="#925978"/>
    <path id="Tracé_78" data-name="Tracé 78" d="M207.795,278.583c2.021.207,3.883.31,3.883.31l10.416-.39V267.626a15.428,15.428,0,0,0-4.2-2.769c-1.814-.629-3.979-2.554-3.549-7.631a7.278,7.278,0,0,1,.088-.907,11.677,11.677,0,0,0,.1-1.711,9.151,9.151,0,0,0-2.888-6.7,1.382,1.382,0,0,0-.151-.135l-1.695-7.893a1.688,1.688,0,0,0-.342.048c-.6.883-1.082,1.5-1.082,1.5l-1.249,2.737,2.387,10.344-2.705.088s1.233,21.309.939,23A2.721,2.721,0,0,0,207.795,278.583Z" transform="translate(-59.915 -111.67)" opacity="0.1"/>
    <path id="Tracé_79" data-name="Tracé 79" d="M208.545,278.971l10.416-.382V267.7a15.524,15.524,0,0,0-4.193-2.769c-1.918-.668-4.2-2.769-3.461-8.538a9.445,9.445,0,0,0-2.769-8.458l-.159-.135-1.695-7.893A3.668,3.668,0,0,0,204,241.446a6.725,6.725,0,0,1-.629.923,1.591,1.591,0,0,1-2.093.621c-1.1-.485-5.825-2.483-6.883-.525s-1.257,13.614-1.257,13.614a8.9,8.9,0,0,1,3.063,5.037c.724,3.334,1.934,3.414,1.934,3.414l1.3,9.548s1.186,2.077.3,3.223" transform="translate(-57.125 -111.676)" fill="#444053"/>
    <path id="Tracé_80" data-name="Tracé 80" d="M206,242.379l1.774,5.315,3.39.294-.159-.135-1.695-7.893a3.668,3.668,0,0,0-2.682,1.536,6.724,6.724,0,0,1-.629.883Z" transform="translate(-59.752 -111.68)" fill="#444053"/>
    <path id="Tracé_81" data-name="Tracé 81" d="M173.87,230.518l.231,1.735,7.519,1.066s.613-.462,1.591-1.09c-.8-.183-4.535-.995-6.493-1.591-.724-.223-1.2-.414-1.217-.541s.048-.151.167-.247C174.554,230.272,173.87,230.518,173.87,230.518Z" transform="translate(-53.188 -109.516)" opacity="0.1"/>
    <path id="Tracé_82" data-name="Tracé 82" d="M162.266,241.131s8.522,6.469,13.805,7.511c0,0,7.432,2.2,10.344,4.774l3.183-12.27-1.949-1.345s-2.331,1.44-4.337.963-4.225-.8-4.225-.8a32.673,32.673,0,0,0-5.4-1.48c-1.432-.119-.851-1.981.581-2.968a3.111,3.111,0,0,1,.6-.334,1.846,1.846,0,0,0,2.387.541,5.45,5.45,0,0,0,1.4-1.3h0a18.167,18.167,0,0,0,1.591-2.387s-4.448-.955-6.66-1.639c-.724-.223-1.2-.414-1.217-.541-.064-.509,3.979-2.117,3.979-2.117s-3.453-1.671-4.854-.454c0,0,.907.676.175,1.345s-9.548,7.456-9.548,7.456S157.762,238.227,162.266,241.131Z" transform="translate(-50.4 -108.992)" fill="#444053"/>
    <path id="Tracé_83" data-name="Tracé 83" d="M172,235.864l4.718.676a3.112,3.112,0,0,1,.6-.334,1.846,1.846,0,0,0,2.387.541,5.45,5.45,0,0,0,1.4-1.3h0a18.653,18.653,0,0,0,1.289-2.013s-4.448-.955-6.66-1.639Z" transform="translate(-52.806 -109.912)" opacity="0.1"/>
    <path id="Tracé_84" data-name="Tracé 84" d="M172.34,235.382l5.021.724a1.846,1.846,0,0,0,2.387.541c1.44-.8,2.992-3.708,2.992-3.708s-4.448-.955-6.66-1.639Z" transform="translate(-52.875 -109.812)" fill="#444053"/>
    <path id="Tracé_85" data-name="Tracé 85" d="M287.683,330l-8.363,6.326s3.788,1.957,7.313,4.225c3.079-2.085,5.984-3.979,8.188-5.737C291.884,333.748,287.683,330,287.683,330Z" transform="translate(-74.731 -130.149)" opacity="0.1"/>
    <path id="Tracé_86" data-name="Tracé 86" d="M232.262,378.064a28.335,28.335,0,0,0,6.127-1.464s1.544-.334,3.835-1.1c-.072-.8-.119-1.7-.127-2.729a55.77,55.77,0,0,0-1.146-8.753l-8.474,1.536-.223,9.477a6.318,6.318,0,0,0,.008,3.032Z" transform="translate(-65.079 -137.129)" opacity="0.1"/>
    <path id="Tracé_87" data-name="Tracé 87" d="M212.033,323.335c1.7,2.522,6.366,13.248,6.366,13.248a45.619,45.619,0,0,0,3.549,5.466c1.854,2.331,3.135,7.575,4.543,11.768s-.414,3.406-.215,5.57,8.164-.637,8.164-.637,16.272-3.581,21.245-13.527,24.834-18.954,28.852-24.547-1.138-3.286-.939-6.318a8.573,8.573,0,0,0-2.093-5.57s-7.5-2.117-8.713-3.589-7.2-5.156-7.2-5.156-5.642-2.443-6.366-3.294-7.408-3.493-9.453-3.978-4.05-3.422-4.05-3.422-1.265.167-3.135-1.647-9.716-3.374-9.716-3.374c-13.392,9.867-22.646,8.49-22.646,8.49l-.215,1.862C202.891,303.96,210.33,320.813,212.033,323.335Z" transform="translate(-59.953 -120.802)" fill="#444053"/>
    <path id="Tracé_88" data-name="Tracé 88" d="M210.79,294.678s11.577,3.811,22.868-10.288c-13.4,9.819-22.654,8.442-22.654,8.442Z" transform="translate(-60.731 -120.794)" opacity="0.1"/>
    <path id="Tracé_89" data-name="Tracé 89" d="M235.83,305.589s15.548,22.447,16.511,23.266S236.65,305.311,235.83,305.589Z" transform="translate(-65.846 -125.146)" opacity="0.1"/>
    <path id="Tracé_90" data-name="Tracé 90" d="M226.8,303.43s10.766,16.71,10.551,18.97C237.351,322.4,226.959,306.334,226.8,303.43Z" transform="translate(-64.001 -124.702)" opacity="0.1"/>
    <path id="Tracé_91" data-name="Tracé 91" d="M218.663,309.2s1.989,9.349-1,14.649Z" transform="translate(-62.134 -125.884)" opacity="0.1"/>
    <path id="Tracé_92" data-name="Tracé 92" d="M213.454,309.88s-.127,8.092-1.034,9.755Z" transform="translate(-61.064 -126.022)" opacity="0.1"/>
    <path id="Tracé_93" data-name="Tracé 93" d="M196.46,213.7l14.3,5.6-5.236.684Z" transform="translate(-17.7 -37.051)" opacity="0.1"/>
    <path id="Tracé_94" data-name="Tracé 94" d="M210.72,220.721c.716.477,1.313,1.233,2.164,1.345a3.405,3.405,0,0,0,1.758-.43,6.468,6.468,0,0,1,4.512-.613c2.1.692,3.254,3.111,5.347,3.827a3.811,3.811,0,0,0,2.005.111,3.882,3.882,0,0,0,1.13-.461,3.636,3.636,0,0,0,1.591-2.26,4.679,4.679,0,0,0-1.591-4.408,9.763,9.763,0,0,0-4.448-2.021c-4.2-.931-8.57-.621-12.859-.294a1.87,1.87,0,0,0-1,.263c-.652.485-1.766,2.928-1.536,3.756C208.11,220.609,210.6,219.814,210.72,220.721Z" transform="translate(-60.112 -106.521)" opacity="0.1"/>
    <path id="Tracé_95" data-name="Tracé 95" d="M210.67,220.3c.716.469,1.3,1.233,2.164,1.345a3.366,3.366,0,0,0,1.751-.438,6.473,6.473,0,0,1,4.512-.613c2.1.7,3.254,3.119,5.347,3.827a3.74,3.74,0,0,0,2.005.111,3.661,3.661,0,0,0,1.13-.454,3.724,3.724,0,0,0,1.639-2.26,4.7,4.7,0,0,0-1.631-4.416,9.8,9.8,0,0,0-4.448-2.013c-4.2-.939-8.562-.621-12.859-.3a1.893,1.893,0,0,0-1,.271c-.645.477-1.766,2.928-1.536,3.756C208.06,220.22,210.551,219.377,210.67,220.3Z" transform="translate(-60.102 -106.435)" fill="#3f3d56"/>
    <path id="Tracé_96" data-name="Tracé 96" d="M281,227.494l1.369,5.53,1.774-1.074,9.644-5.817s7.3-.271,7.869-6.143-8.116-.056-8.578.39-1.512,1.233-1.512,1.233l-8.976,5.013Z" transform="translate(-75.074 -106.969)" fill="#efb7b9"/>
    <path id="Tracé_97" data-name="Tracé 97" d="M281,229.865l1.369,5.53,1.774-1.074c-.39-2.5-1-4.774-1.591-5.331Z" transform="translate(-75.074 -109.34)" opacity="0.1"/>
    <path id="Tracé_98" data-name="Tracé 98" d="M221.18,268.623l1.965,11.538,11.633-2.411c-.278-.883-3.724-12.031-1.233-14.776,2.61-2.857,1.591-10.917,1.591-10.917s-4.512-5.188-5.427-6.445-6.771-2.244-6.771-2.244a4.7,4.7,0,0,1-.422-1.647,6.62,6.62,0,0,0-.446,1.233c0,2.1.851,3.549,3.1,4.607.2.1.406.183.629.271.35.143.74.278,1.154.406l.191.056c3.748,1.114,4.559,3.358,4.559,3.358a8.586,8.586,0,0,1,1.7,6.047C233.044,261.239,221.18,268.623,221.18,268.623Z" transform="translate(-62.853 -112.047)" opacity="0.1"/>
    <path id="Tracé_99" data-name="Tracé 99" d="M222,265.914l1.965,11.53,13.153-2.737s-.4-4.352-1.313-6.119-.732-8.665-.732-8.665c5.57-6,2.642-10.877,2.642-10.877s16.368-2.658,16.646-3.183,5.737-3.437,5.737-3.437,5.928-1.52,6.732-2.387a7.156,7.156,0,0,1,.971-.883,2.549,2.549,0,0,1,.318-.207l.438,3.78h.2a5.387,5.387,0,0,0,2.578-1.018c1.353-1.034-.358-12.373-1.671-12.771a1.512,1.512,0,0,0-.756,0,8.546,8.546,0,0,0-2.825,1.528l-.231.183-.08.072s-7.408,2.9-8.888,4.241-13,3.032-13,3.032-5.164,1.225-5.832.485-8.554-1.949-9.214-.8-2.491.947-2.491.947c-1.3-1.5-2.2-.915-2.745-.056a6.008,6.008,0,0,0-.7,1.663c0,2.292,1.011,3.8,3.732,4.878.414.159.859.318,1.345.462,3.756,1.114,4.559,3.358,4.559,3.358a8.57,8.57,0,0,1,1.711,6.047C233.888,258.53,222,265.914,222,265.914Z" transform="translate(-63.021 -109.417)" fill="#444053"/>
    <path id="Tracé_100" data-name="Tracé 100" d="M280.22,229a1.225,1.225,0,0,1,.422.048c1.313.4,3.016,11.745,1.663,12.779a5.331,5.331,0,0,1-2.3.995h-.2l-.438-3.78a2.558,2.558,0,0,0-.318.207v-.159a9.819,9.819,0,0,0-1.87-8.395Z" transform="translate(-74.294 -109.432)" opacity="0.1"/>
    <path id="Tracé_101" data-name="Tracé 101" d="M279.405,239l.438,3.78a5.291,5.291,0,0,0,2.809-1.074c1.353-1.034-.358-12.373-1.671-12.771-1.034-.318-2.857.971-3.581,1.52A9.835,9.835,0,0,1,279.405,239Z" transform="translate(-74.339 -109.409)" fill="#444053"/>
    <path id="Tracé_102" data-name="Tracé 102" d="M226.9,247.571l1.886-1.766-4.917-4.774a6.008,6.008,0,0,0-.7,1.663C223.186,244.985,224.181,246.489,226.9,247.571Z" transform="translate(-63.26 -111.899)" fill="#444053"/>
    <path id="Tracé_103" data-name="Tracé 103" d="M210.586,220.608c.716.469,1.3,1.233,2.164,1.345a3.366,3.366,0,0,0,1.751-.438,6.473,6.473,0,0,1,4.512-.613c2.1.7,3.254,3.119,5.347,3.827a3.74,3.74,0,0,0,2.005.111,3.6,3.6,0,0,0,2.857-3.724,3.772,3.772,0,0,1,0,1.687,3.692,3.692,0,0,1-1.639,2.26,3.581,3.581,0,0,1-1.13.454,3.708,3.708,0,0,1-2-.111c-2.1-.708-3.254-3.127-5.355-3.827a6.517,6.517,0,0,0-4.512.613,3.366,3.366,0,0,1-1.751.438c-.851-.111-1.448-.875-2.164-1.345-.119-.923-2.61-.08-2.92-1.186a1.321,1.321,0,0,1,0-.509C208.247,220.441,210.467,219.741,210.586,220.608Z" transform="translate(-60.105 -107.42)" opacity="0.1"/>
    <path id="Tracé_104" data-name="Tracé 104" d="M220.483,253.6s-1.042,2.928.286,3.915c0,0-1.456-3.875-2.3-3.788" transform="translate(-62.3 -114.476)" opacity="0.1"/>
    <path id="Tracé_105" data-name="Tracé 105" d="M301.519,217.76s-6.724,5.817-1.862,6.756S301.519,217.76,301.519,217.76Z" transform="translate(-78.525 -107.046)" fill="#efb7b9"/>
    <g id="Groupe_4" data-name="Groupe 4" transform="translate(366.975 135.2)" opacity="0.1">
      <path id="Tracé_106" data-name="Tracé 106" d="M792.482,420.25H583.213V605.6c0,42.379-32.425,71.613-72.106,71.613a79.676,79.676,0,0,1-27.706-4.862,77.612,77.612,0,0,0,38.05,9.636c39.682,0,72.106-29.218,72.106-71.613V425.024H792.482Z" transform="translate(-483.4 -284.122)"/>
      <path id="Tracé_107" data-name="Tracé 107" d="M558.42,266.951h10.344V216.814H767.705V212.04H558.42Z" transform="translate(-458.623 -172.271)"/>
      <path id="Tracé_108" data-name="Tracé 108" d="M902.2,249.17V570.633c0,42.379-32.425,71.613-72.106,71.613a79.676,79.676,0,0,1-27.706-4.862,77.613,77.613,0,0,0,38.05,9.636c39.682,0,72.106-29.218,72.106-71.613V249.17Z" transform="translate(-548.57 -249.17)"/>
    </g>
    <path id="Tracé_109" data-name="Tracé 109" d="M629.625,149.477c5.132,10.607,13.527,22.669,23.02,18.062s16.582-24.15,11.45-34.772-17.02-15.452-26.537-10.845S624.485,138.887,629.625,149.477Z" transform="translate(-145.817 -87.11)" fill="#d06449"/>
    <path id="Tracé_110" data-name="Tracé 110" d="M654.511,186.344s1.854-.31,1.146-1.838a2.835,2.835,0,0,0-.223-.39,4.908,4.908,0,0,1-.708-1.973,7.161,7.161,0,0,1,.088-2.459l-5.053-.334s1.965,1.671,1.735,2.546a.5.5,0,0,1-.231.3.8.8,0,0,1-.334.143l-.382.111c-1.329.469-.8,1.138-.8,1.138C649.928,185.771,654.511,186.344,654.511,186.344Z" transform="translate(-150.389 -99.199)" fill="#6c63ff"/>
    <path id="Tracé_111" data-name="Tracé 111" d="M651.68,182.852l3.565.493a4.436,4.436,0,0,1-.1-.549c-.907-.04-2.331-.159-3.23-.247A.5.5,0,0,1,651.68,182.852Z" transform="translate(-150.804 -99.853)" fill="#444053"/>
    <path id="Tracé_112" data-name="Tracé 112" d="M654.511,187.141s1.854-.31,1.146-1.838a5.729,5.729,0,0,1-2.188.088,4.845,4.845,0,0,1-2.92-2.14c-1.329.469-.8,1.138-.8,1.138C649.928,186.568,654.511,187.141,654.511,187.141Z" transform="translate(-150.389 -99.996)" fill="#6c63ff"/>
    <path id="Tracé_113" data-name="Tracé 113" d="M654.511,187.141s1.854-.31,1.146-1.838a5.729,5.729,0,0,1-2.188.088,4.845,4.845,0,0,1-2.92-2.14c-1.329.469-.8,1.138-.8,1.138C649.928,186.568,654.511,187.141,654.511,187.141Z" transform="translate(-150.389 -99.996)" opacity="0.1"/>
    <path id="Tracé_114" data-name="Tracé 114" d="M652.37,123.758s5.649-.684,7.249,3.079a4.543,4.543,0,0,0-2.029.119,2.881,2.881,0,0,1-1.321.255A7.576,7.576,0,0,0,652.37,123.758Z" transform="translate(-150.945 -87.831)" fill="#fff" opacity="0.1"/>
    <path id="Tracé_115" data-name="Tracé 115" d="M659.441,218.34a2,2,0,0,0,.318-.318,4.3,4.3,0,0,1,1.209-.955,4.237,4.237,0,0,1,.5-.255,7.376,7.376,0,0,1,1.591-.477,6.362,6.362,0,0,1,.8-.088l-.716-3.422v-.048l-.31-1.488a10.806,10.806,0,0,1-.716,1.249c-.366.557-.8,1.09-1.273,1.1a.565.565,0,0,1-.358-.135,1.083,1.083,0,0,1-.223-.286c-.08-.127-.143-.239-.215-.342-.8-1.146-1.3-.43-1.3-.43-.907.326-1.281,1.408-1.416,2.5a1.546,1.546,0,0,1-.048.469,12.5,12.5,0,0,0,.08,2.315S658.184,219.438,659.441,218.34Z" transform="translate(-151.945 -105.724)" fill="#d36641"/>
    <path id="Tracé_116" data-name="Tracé 116" d="M661.886,217.635a4.241,4.241,0,0,1,.5-.255c-.175-.74-.39-1.854-.541-2.729v-.183a.544.544,0,0,0-.048-.263.565.565,0,0,1-.358-.135l.08.533v.215Z" transform="translate(-152.798 -106.292)" fill="#444053"/>
    <path id="Tracé_117" data-name="Tracé 117" d="M659.441,218.579a5.736,5.736,0,0,1-.668-2.085,4.519,4.519,0,0,1,.151-1.321c.04-.127.072-.255.119-.374a3.875,3.875,0,0,1,1-1.687c-.8-1.146-1.3-.43-1.3-.43-.907.326-1.281,1.408-1.416,2.5a1.546,1.546,0,0,1-.048.469,12.494,12.494,0,0,0,.079,2.315S658.184,219.677,659.441,218.579Z" transform="translate(-151.945 -105.964)" fill="#d36641"/>
    <path id="Tracé_118" data-name="Tracé 118" d="M659.441,218.579a5.736,5.736,0,0,1-.668-2.085,4.519,4.519,0,0,1,.151-1.321c.04-.127.072-.255.119-.374a3.875,3.875,0,0,1,1-1.687c-.8-1.146-1.3-.43-1.3-.43-.907.326-1.281,1.408-1.416,2.5a1.546,1.546,0,0,1-.048.469,12.494,12.494,0,0,0,.079,2.315S658.184,219.677,659.441,218.579Z" transform="translate(-151.945 -105.964)" opacity="0.1"/>
    <path id="Tracé_119" data-name="Tracé 119" d="M614.084,169.773a58.3,58.3,0,0,0,13.964,6.851c3.62,1.1,7.09,1.448,9.994.525a9.159,9.159,0,0,0,3.39-1.957,9.667,9.667,0,0,0,1.711-2.037c3.366-5.26,3.3-14.506.637-22.51-1.862-5.57-4.949-10.5-9.015-13.113-9.914-6.366-22.582-4.3-28.3,4.607S604.17,163.408,614.084,169.773Z" transform="translate(-141.002 -89.901)" fill="#d06449"/>
    <path id="Tracé_120" data-name="Tracé 120" d="M614.084,169.773a58.3,58.3,0,0,0,13.964,6.851c3.62,1.1,7.09,1.448,9.994.525a9.159,9.159,0,0,0,3.39-1.957,9.667,9.667,0,0,0,1.711-2.037c3.366-5.26,3.3-14.506.637-22.51-1.862-5.57-4.949-10.5-9.015-13.113-9.914-6.366-22.582-4.3-28.3,4.607S604.17,163.408,614.084,169.773Z" transform="translate(-141.002 -89.901)" opacity="0.1"/>
    <path id="Tracé_121" data-name="Tracé 121" d="M647.33,190.88c1.265,1.766,5.458-.127,5.458-.127s1.424-1.225,0-2.156a3.392,3.392,0,0,0-.39-.223,4.44,4.44,0,0,1-1.265-.9c-.127-.127-.255-.263-.374-.406a7.448,7.448,0,0,1-.891-1.408,5.894,5.894,0,0,1-.31-.74l-4.488,2.387a10.178,10.178,0,0,1,1.408.342c.645.207,1.281.509,1.4.923a.5.5,0,0,1,0,.382.948.948,0,0,1-.215.294,3.921,3.921,0,0,0-.263.294C646.494,190.6,647.33,190.88,647.33,190.88Z" transform="translate(-149.454 -100.337)" fill="#6c63ff"/>
    <path id="Tracé_122" data-name="Tracé 122" d="M648.58,189.524l3.286-1.448c-.127-.127-.255-.263-.374-.406-.8.43-2.061,1.074-2.88,1.472A.5.5,0,0,1,648.58,189.524Z" transform="translate(-150.171 -100.899)" fill="#444053"/>
    <path id="Tracé_123" data-name="Tracé 123" d="M647.818,191.824c1.265,1.766,5.458-.127,5.458-.127s1.424-1.225,0-2.156a5.5,5.5,0,0,1-1.822,1.209,4.846,4.846,0,0,1-3.6-.294C646.982,191.545,647.818,191.824,647.818,191.824Z" transform="translate(-149.942 -101.281)" fill="#6c63ff"/>
    <path id="Tracé_124" data-name="Tracé 124" d="M647.818,191.824c1.265,1.766,5.458-.127,5.458-.127s1.424-1.225,0-2.156a5.5,5.5,0,0,1-1.822,1.209,4.846,4.846,0,0,1-3.6-.294C646.982,191.545,647.818,191.824,647.818,191.824Z" transform="translate(-149.942 -101.281)" opacity="0.1"/>
    <path id="Tracé_125" data-name="Tracé 125" d="M618.28,138.613s4.464-3.525,7.79-1.154a4.583,4.583,0,0,0-1.663,1.162,2.889,2.889,0,0,1-1,.907A7.583,7.583,0,0,0,618.28,138.613Z" transform="translate(-143.981 -90.473)" fill="#fff" opacity="0.1"/>
    <g id="Groupe_5" data-name="Groupe 5" transform="translate(515.638 80.302)" opacity="0.1">
      <path id="Tracé_126" data-name="Tracé 126" d="M678.111,184.5l-1.034-4.957a9.537,9.537,0,0,1-.716,1.249,8.961,8.961,0,0,0,.955,3.8,5.575,5.575,0,0,1,.8-.1Z" transform="translate(-671.484 -179.54)"/>
      <path id="Tracé_127" data-name="Tracé 127" d="M672.435,186.6a2.386,2.386,0,0,0,.318-.318,4.448,4.448,0,0,1,1.209-.963,4.234,4.234,0,0,1,.5-.255,6.82,6.82,0,0,1,1.591-.469,5.574,5.574,0,0,1,.8-.1l-1.034-4.957a9.538,9.538,0,0,1-.716,1.249c-.366.557-.835,1.1-1.273,1.106a.581.581,0,0,1-.35-.143.979.979,0,0,1-.247-.255c-.072-.127-.143-.239-.207-.342-.8-1.146-1.3-.422-1.3-.422-2.045.74-1.385,5.283-1.385,5.283S671.153,187.688,672.435,186.6Z" transform="translate(-670.232 -179.54)"/>
      <path id="Tracé_128" data-name="Tracé 128" d="M674.8,185.881a4.233,4.233,0,0,1,.5-.255c-.207-.867-.462-2.276-.629-3.183a.58.58,0,0,1-.35-.143Z" transform="translate(-671.067 -180.104)"/>
      <path id="Tracé_129" data-name="Tracé 129" d="M672.441,186.838a5.832,5.832,0,0,1-.668-2.093,4.887,4.887,0,0,1,1.281-3.382c-.8-1.146-1.3-.422-1.3-.422-2.045.74-1.385,5.283-1.385,5.283S671.16,187.928,672.441,186.838Z" transform="translate(-670.238 -179.78)"/>
      <path id="Tracé_130" data-name="Tracé 130" d="M672.441,186.838a5.832,5.832,0,0,1-.668-2.093,4.887,4.887,0,0,1,1.281-3.382c-.8-1.146-1.3-.422-1.3-.422-2.045.74-1.385,5.283-1.385,5.283S671.16,187.928,672.441,186.838Z" transform="translate(-670.238 -179.78)" opacity="0.1"/>
    </g>
    <path id="Tracé_131" data-name="Tracé 131" d="M671.619,185.36a2,2,0,0,0,.318-.318,4.448,4.448,0,0,1,1.209-.955,4.248,4.248,0,0,1,.5-.255,6.82,6.82,0,0,1,1.591-.469,5.571,5.571,0,0,1,.8-.1L675,178.31a10.123,10.123,0,0,1-.716,1.249c-.366.557-.8,1.1-1.273,1.1a.525.525,0,0,1-.35-.135,1.1,1.1,0,0,1-.231-.286c-.072-.127-.143-.239-.207-.342-.8-1.146-1.3-.43-1.3-.43-2.045.748-1.385,5.291-1.385,5.291S670.338,186.458,671.619,185.36Z" transform="translate(-154.431 -98.986)" fill="#6c63ff"/>
    <path id="Tracé_132" data-name="Tracé 132" d="M673.977,184.653a4.247,4.247,0,0,1,.5-.255c-.207-.867-.462-2.276-.629-3.183a.525.525,0,0,1-.35-.135Z" transform="translate(-155.262 -99.552)" fill="#444053"/>
    <path id="Tracé_133" data-name="Tracé 133" d="M671.631,185.6a5.737,5.737,0,0,1-.668-2.085,4.886,4.886,0,0,1,1.321-3.382c-.8-1.146-1.3-.43-1.3-.43-2.045.748-1.385,5.291-1.385,5.291S670.35,186.7,671.631,185.6Z" transform="translate(-154.443 -99.226)" fill="#6c63ff"/>
    <path id="Tracé_134" data-name="Tracé 134" d="M671.631,185.6a5.737,5.737,0,0,1-.668-2.085,4.886,4.886,0,0,1,1.321-3.382c-.8-1.146-1.3-.43-1.3-.43-2.045.748-1.385,5.291-1.385,5.291S670.35,186.7,671.631,185.6Z" transform="translate(-154.443 -99.226)" opacity="0.1"/>
    <g id="Groupe_6" data-name="Groupe 6" transform="translate(511.024 70.619)" opacity="0.1">
      <path id="Tracé_135" data-name="Tracé 135" d="M666.837,168.667a9.079,9.079,0,0,0,3.676,1.361,6.672,6.672,0,0,1,.366-.716L666.2,167.37a9.557,9.557,0,0,1,.637,1.3Z" transform="translate(-664.794 -167.37)"/>
      <path id="Tracé_136" data-name="Tracé 136" d="M668.07,175.538s1.854.31,1.679-1.369a2.581,2.581,0,0,0-.088-.446,4.4,4.4,0,0,1-.111-1.536,4.283,4.283,0,0,1,.08-.557,7.663,7.663,0,0,1,.875-2.3l-4.679-1.942a9.548,9.548,0,0,1,.653,1.281c.255.621.43,1.313.191,1.671a.549.549,0,0,1-.318.215.843.843,0,0,1-.358,0h-.406c-1.4,0-1.082.8-1.082.8C663.925,173.525,668.07,175.538,668.07,175.538Z" transform="translate(-664.437 -167.374)"/>
      <path id="Tracé_137" data-name="Tracé 137" d="M666.8,171.329l3.183,1.591a4.262,4.262,0,0,1,.08-.557c-.843-.326-2.148-.907-2.976-1.273A.549.549,0,0,1,666.8,171.329Z" transform="translate(-664.917 -168.13)"/>
      <path id="Tracé_138" data-name="Tracé 138" d="M668.067,176.357s1.854.31,1.679-1.369a5.729,5.729,0,0,1-2.1-.621,4.9,4.9,0,0,1-2.077-2.968c-1.4,0-1.082.8-1.082.8C663.922,174.344,668.067,176.357,668.067,176.357Z" transform="translate(-664.434 -168.193)"/>
      <path id="Tracé_139" data-name="Tracé 139" d="M668.067,176.357s1.854.31,1.679-1.369a5.729,5.729,0,0,1-2.1-.621,4.9,4.9,0,0,1-2.077-2.968c-1.4,0-1.082.8-1.082.8C663.922,174.344,668.067,176.357,668.067,176.357Z" transform="translate(-664.434 -168.193)" opacity="0.1"/>
    </g>
    <path id="Tracé_140" data-name="Tracé 140" d="M667.638,174.906s1.854.31,1.679-1.361a2.44,2.44,0,0,0-.088-.446,4.448,4.448,0,0,1-.111-1.544,4.142,4.142,0,0,1,.08-.549,6.5,6.5,0,0,1,.509-1.591,6.683,6.683,0,0,1,.366-.716l-4.679-1.949a9.55,9.55,0,0,1,.637,1.3c.255.629.43,1.313.191,1.679a.573.573,0,0,1-.318.207.979.979,0,0,1-.358,0h-.406c-1.4,0-1.082.8-1.082.8C663.508,172.9,667.638,174.906,667.638,174.906Z" transform="translate(-153.323 -96.625)" fill="#6c63ff"/>
    <path id="Tracé_141" data-name="Tracé 141" d="M666.39,170.711l3.183,1.591a4.142,4.142,0,0,1,.08-.549c-.844-.326-2.148-.907-2.976-1.273a.573.573,0,0,1-.286.231Z" transform="translate(-153.809 -97.387)" fill="#444053"/>
    <path id="Tracé_142" data-name="Tracé 142" d="M667.638,175.729s1.854.31,1.679-1.361a5.919,5.919,0,0,1-2.1-.629,4.886,4.886,0,0,1-2.077-2.96c-1.4,0-1.082.8-1.082.8C663.508,173.724,667.638,175.729,667.638,175.729Z" transform="translate(-153.323 -97.448)" fill="#6c63ff"/>
    <path id="Tracé_143" data-name="Tracé 143" d="M667.638,175.729s1.854.31,1.679-1.361a5.919,5.919,0,0,1-2.1-.629,4.886,4.886,0,0,1-2.077-2.96c-1.4,0-1.082.8-1.082.8C663.508,173.724,667.638,175.729,667.638,175.729Z" transform="translate(-153.323 -97.448)" opacity="0.1"/>
    <path id="Tracé_144" data-name="Tracé 144" d="M645.241,202.494a9.887,9.887,0,0,1,.724-1.241c.382-.557.852-1.09,1.281-1.09a.5.5,0,0,1,.358.143,1.037,1.037,0,0,1,.223.278c.072.135.143.247.207.35.8,1.162,1.3.438,1.3.438,2.053-.716,1.432-5.275,1.432-5.275s-.8-1.711-2.069-.629a2.932,2.932,0,0,0-.326.31,5.084,5.084,0,0,1-1.719,1.2,7.165,7.165,0,0,1-1.591.454,5.061,5.061,0,0,1-.8.088Z" transform="translate(-149.29 -102.418)" fill="#6c63ff"/>
    <path id="Tracé_145" data-name="Tracé 145" d="M647.849,200.579a.5.5,0,0,1,.358.143l-.446-3.573a4.183,4.183,0,0,1-.5.247C647.467,198.272,647.706,199.68,647.849,200.579Z" transform="translate(-149.901 -102.835)" fill="#444053"/>
    <path id="Tracé_146" data-name="Tracé 146" d="M649,200.934c.8,1.162,1.3.438,1.3.438,2.053-.716,1.432-5.275,1.432-5.275s-.8-1.711-2.069-.629a5.569,5.569,0,0,1,.637,2.093,4.822,4.822,0,0,1-1.3,3.374Z" transform="translate(-150.257 -102.418)" fill="#6c63ff"/>
    <path id="Tracé_147" data-name="Tracé 147" d="M649,200.934c.8,1.162,1.3.438,1.3.438,2.053-.716,1.432-5.275,1.432-5.275s-.8-1.711-2.069-.629a5.569,5.569,0,0,1,.637,2.093,4.822,4.822,0,0,1-1.3,3.374Z" transform="translate(-150.257 -102.418)" opacity="0.1"/>
    <path id="Tracé_148" data-name="Tracé 148" d="M641.546,208.019a15.555,15.555,0,0,0,2.387-7.957c.382-.557.851-1.09,1.281-1.09a.5.5,0,0,1,.358.143,1.033,1.033,0,0,1,.223.278c.072.135.143.247.207.35.8,1.162,1.3.438,1.3.438,2.053-.716,1.432-5.275,1.432-5.275s-.8-1.711-2.069-.629a2.921,2.921,0,0,0-.326.31,5.085,5.085,0,0,1-1.719,1.2,7.162,7.162,0,0,1-1.591.454,10.7,10.7,0,0,0-1.472-2.212,18.15,18.15,0,0,0-7.082-4.671C635.594,196.418,637.671,203.85,641.546,208.019Z" transform="translate(-147.29 -101.244)" opacity="0.1"/>
    <path id="Tracé_149" data-name="Tracé 149" d="M657.39,203.52a13.814,13.814,0,0,0,1.711-.382,14.982,14.982,0,0,0,1.52-.525l.326-.135c.422-.183.851-.382,1.281-.6s.644-.334.971-.517c6.055-3.493,11.935-10.519,14.561-17.649a23.164,23.164,0,0,0,1.424-6.063,16.306,16.306,0,0,0-.048-3.3,23.306,23.306,0,0,0-2.96-8.92c-.175-.294-.342-.573-.525-.843-3.978-6.143-10.67-9.851-17.784-9.1,1.544,4.464,3.74,8.267,6.835,10.249.255.629.43,1.313.191,1.679a.573.573,0,0,1-.318.207.979.979,0,0,1-.358,0h-.406c-1.4,0-1.082.8-1.082.8-.549,2.109,3.581,4.122,3.581,4.122s1.854.31,1.679-1.361a2.439,2.439,0,0,0-.087-.446,4.448,4.448,0,0,1-.111-1.544,4.153,4.153,0,0,1,.08-.549,6.5,6.5,0,0,1,.509-1.591,10.223,10.223,0,0,0,2.658,0,14.116,14.116,0,0,0,3.628-.987c-.167.263-.318.525-.461.8a15.611,15.611,0,0,0-2.387,7.957c-.366.557-.8,1.1-1.273,1.1a.525.525,0,0,1-.35-.135,1.1,1.1,0,0,1-.231-.286c-.072-.127-.143-.239-.207-.342-.8-1.146-1.3-.43-1.3-.43-2.045.748-1.385,5.291-1.385,5.291s.8,1.7,2.077.6a2,2,0,0,0,.318-.318,4.447,4.447,0,0,1,1.209-.955,4.245,4.245,0,0,1,.5-.255,6.82,6.82,0,0,1,1.591-.469,10.136,10.136,0,0,0,1.488,2.2l.318.342-.111.1a62.857,62.857,0,0,0-7.058,7.511,28.181,28.181,0,0,0-1.814,2.53q-.589.9-1.1,1.79a15.652,15.652,0,0,0-2.339,7.957c-.366.557-.8,1.09-1.273,1.1a.565.565,0,0,1-.358-.135,1.084,1.084,0,0,1-.223-.286c-.08-.127-.143-.239-.215-.342-.8-1.146-1.3-.43-1.3-.43A3,3,0,0,0,657.39,203.52Z" transform="translate(-151.971 -94.302)" opacity="0.1"/>
    <g id="Groupe_7" data-name="Groupe 7" transform="translate(486.516 60.776)" opacity="0.1">
      <path id="Tracé_150" data-name="Tracé 150" d="M668.118,164.7a2.865,2.865,0,0,0,1.337.183,4.639,4.639,0,0,1,1.957.541c-.3-4.074-5.872-5.252-5.872-5.252A7.56,7.56,0,0,1,668.118,164.7Z" transform="translate(-640.152 -156.056)"/>
      <path id="Tracé_151" data-name="Tracé 151" d="M633.814,178.473c.1.8.215,1.663.35,2.506,3.62,1.1,7.09,1.448,9.994.525.645.207,1.281.509,1.4.923a.5.5,0,0,1,0,.382.949.949,0,0,1-.215.294,3.921,3.921,0,0,0-.263.294c-.891,1.09-.056,1.369-.056,1.369,1.265,1.766,5.458-.127,5.458-.127s1.424-1.225,0-2.156a3.4,3.4,0,0,0-.39-.223,4.441,4.441,0,0,1-1.265-.9c-.127-.127-.255-.263-.374-.406a7.45,7.45,0,0,1-.891-1.408,9.669,9.669,0,0,0,1.711-2.037c3.366-5.26,3.3-14.506.637-22.51C639.567,156.464,632.389,166.936,633.814,178.473Z" transform="translate(-633.634 -155)"/>
      <path id="Tracé_152" data-name="Tracé 152" d="M645.832,213.249a9.071,9.071,0,0,0,3.668,1.377,5.8,5.8,0,0,1,.374-.716L645.18,212a11.024,11.024,0,0,1,.653,1.249Z" transform="translate(-635.993 -166.645)"/>
      <path id="Tracé_153" data-name="Tracé 153" d="M647.066,220.108s1.862.318,1.679-1.361a2.384,2.384,0,0,0-.08-.446,4.463,4.463,0,0,1-.111-1.544,3.977,3.977,0,0,1,.072-.549,7.161,7.161,0,0,1,.509-1.591,5.793,5.793,0,0,1,.374-.716l-4.687-1.9a11.025,11.025,0,0,1,.637,1.289c.247.629.422,1.321.183,1.679a.525.525,0,0,1-.31.215,1.05,1.05,0,0,1-.366,0,3.6,3.6,0,0,0-.4,0c-1.408,0-1.09.8-1.09.8C642.936,218.1,647.066,220.108,647.066,220.108Z" transform="translate(-635.635 -166.645)"/>
      <path id="Tracé_154" data-name="Tracé 154" d="M645.82,215.941,649,217.532a2.078,2.078,0,0,1,.072-.549c-.835-.326-2.148-.907-2.976-1.273A.533.533,0,0,1,645.82,215.941Z" transform="translate(-636.123 -167.403)"/>
      <path id="Tracé_155" data-name="Tracé 155" d="M647.066,220.919s1.854.31,1.679-1.369a5.648,5.648,0,0,1-2.1-.621,4.853,4.853,0,0,1-2.077-2.96c-1.408,0-1.09.8-1.09.8C642.928,218.914,647.066,220.919,647.066,220.919Z" transform="translate(-635.634 -167.456)"/>
      <path id="Tracé_156" data-name="Tracé 156" d="M647.066,220.919s1.854.31,1.679-1.369a5.648,5.648,0,0,1-2.1-.621,4.853,4.853,0,0,1-2.077-2.96c-1.408,0-1.09.8-1.09.8C642.928,218.914,647.066,220.919,647.066,220.919Z" transform="translate(-635.634 -167.456)" opacity="0.1"/>
      <path id="Tracé_157" data-name="Tracé 157" d="M668.118,164.7a2.865,2.865,0,0,0,1.337.183,4.639,4.639,0,0,1,1.957.541c-.3-4.074-5.872-5.252-5.872-5.252A7.56,7.56,0,0,1,668.118,164.7Z" transform="translate(-640.152 -156.056)" opacity="0.1"/>
    </g>
    <path id="Tracé_158" data-name="Tracé 158" d="M635.253,179.249c1.44,11.7,5.474,25.813,15.97,24.516s23.489-17.505,22.049-29.21-11.14-20.115-21.627-18.818S633.805,167.56,635.253,179.249Z" transform="translate(-147.411 -94.348)" fill="#d06449"/>
    <path id="Tracé_159" data-name="Tracé 159" d="M648.493,220.908s1.854.318,1.679-1.361a3.523,3.523,0,0,0-.08-.446,4.273,4.273,0,0,1-.119-1.544,3.158,3.158,0,0,1,.08-.549,7.16,7.16,0,0,1,.883-2.3l-4.679-1.949s1.321,2.22.8,2.976a.549.549,0,0,1-.318.215,1.225,1.225,0,0,1-.358,0h-.4c-1.408,0-1.09.8-1.09.8C644.363,218.911,648.493,220.908,648.493,220.908Z" transform="translate(-149.407 -106.024)" fill="#d36641"/>
    <path id="Tracé_160" data-name="Tracé 160" d="M647.25,216.721l3.183,1.591a3.152,3.152,0,0,1,.08-.549c-.843-.326-2.148-.907-2.976-1.273A.549.549,0,0,1,647.25,216.721Z" transform="translate(-149.899 -106.786)" fill="#444053"/>
    <path id="Tracé_161" data-name="Tracé 161" d="M648.5,221.729s1.854.318,1.679-1.361a5.569,5.569,0,0,1-2.1-.629,4.822,4.822,0,0,1-2.069-2.96c-1.408,0-1.09.8-1.09.8C644.368,219.732,648.5,221.729,648.5,221.729Z" transform="translate(-149.412 -106.846)" fill="#d36641"/>
    <path id="Tracé_162" data-name="Tracé 162" d="M648.5,221.729s1.854.318,1.679-1.361a5.569,5.569,0,0,1-2.1-.629,4.822,4.822,0,0,1-2.069-2.96c-1.408,0-1.09.8-1.09.8C644.368,219.732,648.5,221.729,648.5,221.729Z" transform="translate(-149.412 -106.846)" opacity="0.1"/>
    <path id="Tracé_163" data-name="Tracé 163" d="M667,161s5.57,1.178,5.872,5.252a4.568,4.568,0,0,0-1.965-.533,2.9,2.9,0,0,1-1.329-.191A7.614,7.614,0,0,0,667,161Z" transform="translate(-153.934 -95.45)" fill="#fff" opacity="0.1"/>
    <path id="Tracé_164" data-name="Tracé 164" d="M648.375,218.1a3.39,3.39,0,0,1,3.016,4.169c-.7,2.347-3.581,3.087-5.459,4.655a9.569,9.569,0,0,0-3.008,6.517,15.978,15.978,0,0,0,4.591,12.636c1.687,1.663,3.724,2.936,5.387,4.623a27.516,27.516,0,0,1,4.655,7.1,16.614,16.614,0,0,1,2.061,5.968c.279,3.35-1.408,6.557-3.422,9.246s-4.424,5.124-5.984,8.1a17.02,17.02,0,0,0-.979,13.344,1.727,1.727,0,0,0,.565.891.629.629,0,0,0,.923-.2" transform="translate(-149.004 -107.209)" fill="none" stroke="#444053" stroke-miterlimit="10" stroke-width="1"/>
    <path id="Tracé_165" data-name="Tracé 165" d="M657.933,217.36a1.592,1.592,0,0,1,.072,2.021,2.459,2.459,0,0,1-1.942.9c-.9,0-1.9-.279-2.642.247a2.284,2.284,0,0,0-.8,1.727,8.808,8.808,0,0,1-.2,1.949,3.882,3.882,0,0,1-.859,1.4,4.306,4.306,0,0,1-1.591,1.162c-1.329.517-2.865.048-4.225.477-1.79.565-2.753,2.5-3.294,4.3a12.374,12.374,0,0,0-.39,6.668,23.081,23.081,0,0,0,1.806,4.09,9.254,9.254,0,0,1,1.178,4.265,3.915,3.915,0,0,1-2.244,3.581" transform="translate(-148.782 -107.048)" fill="none" stroke="#444053" stroke-miterlimit="10" stroke-width="1"/>
    <path id="Tracé_166" data-name="Tracé 166" d="M632.7,280.668c-2.14,2.849-2.952,7.4-6.453,8.092-1.806.358-3.6-.573-5.212-1.464-3.764-2.1-7.639-4.217-11.935-4.909s-9.039.3-11.856,3.573c-1.918,2.244-2.705,5.252-4.392,7.671a15.739,15.739,0,0,1-8.912,5.856,36.467,36.467,0,0,1-10.806.923,5.873,5.873,0,0,1-3.811-1.034,9.278,9.278,0,0,1-1.591-2.427c-1.727-2.9-5.14-4.488-8.506-4.7a22.359,22.359,0,0,0-9.8,2.077c-1.591.652-3.183,1.4-4.886,1.233-2.387-.239-4.146-2.164-5.618-4.018a79.569,79.569,0,0,1-9.652-15.707" transform="translate(-125.796 -119.042)" fill="none" stroke="#444053" stroke-miterlimit="10" stroke-width="1"/>
    <path id="Tracé_167" data-name="Tracé 167" d="M497.9,535.781c.851-3.1,1.408-5.817,1.408-5.817a12.175,12.175,0,0,1,1.591-5.9l.04-.851h0l.239-6.278a21.128,21.128,0,0,0-1.456-3.35c-1.058-2.013.358-9.206.358-9.206s4.583-10.034,3.811-16.535,9.708-28.391,9.708-28.391a28.152,28.152,0,0,0-.66-6.366,5.42,5.42,0,0,1-.072-1.337v-.111c.31-4.257,3.979-12.126,3.979-12.126l.135-15.246s-1.806-9.071,2.172-21c1.385-4.162,2.3-7.5,2.9-10.074.072-.294.135-.573.191-.843-7.161-1.385-12.668-2.514-12.668-2.514s4.862-17.37,7.814-20.33,5.57-12.524,5.57-12.524,1.95-12.325-.294-16.033-2.307-10-2.307-10-5.284-4.154-5.9-5.936a29.064,29.064,0,0,1-1.512-7.854c.08-2.085.8-3.923.644-5.021s1.79-5.2.955-7.209a5.57,5.57,0,0,1-.286-1.918s0,0,0-.056a26.662,26.662,0,0,1,.676-5.124,14.514,14.514,0,0,1,5.49-2.666l.135-.469.35-1.217c.191-.119.374-.215.549-.3v-.446l.119-1.782-.7-4.034c-1.4-7.018,7.957-7.7,7.957-7.7a4.886,4.886,0,0,1,2.721-2.2c1.894-.589-.1,10.479-.995,11.14-.676.509-2.841,3.923-3.883,5.57h0l-.175.279a3.892,3.892,0,0,1,.414.461l-.446,2.387-.072.366a10.053,10.053,0,0,1,1.384,2.586,5.39,5.39,0,0,0-1.512,3.9,12.3,12.3,0,0,1-.748,4.774c.1-.1,1.353-1.353,2.53-.995s4.48,1.488,4.48,1.488,2.475.541,2.228,1.074,1.591,3.024,1.591,3.024l6.97-5.984c.072-.191.151-.374.215-.573a15.661,15.661,0,0,0,.692-2.753,15.259,15.259,0,0,1-2.117-.8,4.6,4.6,0,0,1-1.806-1.257,7.162,7.162,0,0,1-.963-2.928,41.3,41.3,0,0,0-2.276-5.634,18.055,18.055,0,0,1-.955-10,6.572,6.572,0,0,1,1.146-2.872c1.146-1.464,3.183-2,4.639-3.135s2.491-2.944,4.2-3.78a8.025,8.025,0,0,1,5.1-.239,27.292,27.292,0,0,1,9.357,3.811c.955.613,2,1.329,3.127,1.162a4.209,4.209,0,0,0,2.387-1.591v-.088l.072-.088a11.815,11.815,0,0,1,.851,5.053,3.359,3.359,0,0,1-.064.8v.279a1.139,1.139,0,0,0,0,.231h0a1.379,1.379,0,0,0,0,.358,2.57,2.57,0,0,0,.589.931,4.776,4.776,0,0,1,.517.8.922.922,0,0,0-.08-.279,3.978,3.978,0,0,1,.613,2.14,2.133,2.133,0,0,1-.557,1.488,6.913,6.913,0,0,1-1.13.835,12.731,12.731,0,0,1-6.62,13.042c-.08.183-.167.374-.247.565a16,16,0,0,0-1.5,7.257,1.556,1.556,0,0,0,.064.533,3.478,3.478,0,0,1,.223.286h0s11.044.533,13.742-1.727,6.366,6.015,6.366,6.015,3.939.915,4.774.183,5.443.1,5.443.1a9.97,9.97,0,0,1,7-2.252,20.457,20.457,0,0,1,5.18-2.626h.127a5.721,5.721,0,0,1,2.5-.223s5.61-4.281,7.289-6.628,9.548-11.013,9.612-11.044l.04-.438.135-1.3a4.845,4.845,0,0,0,.676.088c.048-.127.1-.279.175-.446a23.692,23.692,0,0,1,1.743-3.62s.064-1.647-.406-2.077.454-6.437.454-6.437,5.331-11.259,9.4-2.546c0,0,8.076,5.856.867,12.031,0,0-2.825,1.233-3.262,2.284-.286.684-1.3,2.586-1.981,3.843-.119.207-.223.4-.31.565l.08.072-.143,1.066-.064.414c1.289.8,2.148,1.591,1.91,2.125a12.225,12.225,0,0,0-.907,2.928s-10.09,11.681-11.538,16.789c0,0-26.409,14.323-34.939,15.118l1.178,7.726s.271,4.623.1,6.262.668,9.143.668,9.143,1.05,11.012,2.236,12.6.708,8.148.708,8.148A54.981,54.981,0,0,0,589,386.142a24.009,24.009,0,0,1,0,9.334s3.923,10.034-6.119,2.944c0,0-5.053-.509-10.869-.931v.589c0,.748,0,1.591-.064,2.387-.135,5.657-.406,13.447-.883,19.328-.859,10.392-4.822,30.873-4.822,30.873l-.4,10.344a13.478,13.478,0,0,1,.183,2.968,19.225,19.225,0,0,1-3.183,10.257l-1.218,6.835s-2.037,4.472-2.18,7.161a3.4,3.4,0,0,0,.056.66,4.84,4.84,0,0,1,.048,1.066c0,3.135-2.188,10.567-2.188,10.567s-.406,7.559-1.591,7.957c-.979.342,1.13,4.408,1.758,5.57a2.066,2.066,0,0,0,.048-.215l.135.239a5.355,5.355,0,0,1,.278,1.926,2.753,2.753,0,0,1-1.361,2.61c-2.2,1.225-3.4,2.284-1.591,2.785.692.2,1.432.271,1.981.5,0-.088.072-.175.1-.255a1.21,1.21,0,0,1,.692,1.361,5.57,5.57,0,0,1-.8,2.538,27.164,27.164,0,0,1-3.278,5.466l-.867-.127a4.246,4.246,0,0,0,.469.955,3.684,3.684,0,0,0,1.233,1.186,3.979,3.979,0,0,0,1.528.589,4.368,4.368,0,0,1,3.183,1.687c1.066,1.5,1.7,3.517-.6,5.18l-8.2,2.483s-14,1.273-13.145-1.822,1.416-5.817,1.416-5.817a12.364,12.364,0,0,1,1.385-5.443,5.732,5.732,0,0,1,.525-.8l-.493-.08s-.748-6.938-2.061-8.307c-.3-.318-.366-.557-.278-.732-.127-.382.231-.589.692-.692a1.191,1.191,0,0,0,.088.271,7.245,7.245,0,0,1,1.361-.1s.6-3.6-.8-4.973a1.393,1.393,0,0,1-.247-1.082,5.9,5.9,0,0,1,.215-1.472l.048.088a53.305,53.305,0,0,1,3.573-8.371s.247-3.286-.613-4.631.8-17.863.8-17.863,0-8.013,1.13-11.7-.939-8.156-.939-8.156v-.239a.178.178,0,0,0,0-.056l.183-1.257v.08c.31-2.109.891-5.928,1.273-7.694.549-2.5.454-14.577.454-14.577l-1.846-5.236-3.979,8.753-4.281,11.641a10.113,10.113,0,0,0-2.148,4.957v.374a6.58,6.58,0,0,1,0,.8A7.034,7.034,0,0,1,531.463,463s-1.233,5.57-2.872,6.915-1.743,4.1-1.743,4.1-2.244,8.037-3.183,9.429c-.8,1.17-.979,4.472-1.011,5.482h0v.294s-.382,2.888-.461,5.331v.8a8.839,8.839,0,0,0,.159,1.981s0,.072,0,.111v-.406a20.593,20.593,0,0,1,.39,5.077c-.064,2.912-.637,6.366-2.483,8.307-3.183,3.39-5.1,2.88-5.1,2.88s1.3,4.44,3.079,5.387a.793.793,0,0,1,.191.127.437.437,0,0,1,.056-.255,2.14,2.14,0,0,1,.469,1.655,11.679,11.679,0,0,1-2.5,6.413,3.588,3.588,0,0,1-1.591.835l.278.191c.223.127.422.231.613.318a2.913,2.913,0,0,0,.915.271,4.321,4.321,0,0,1,3.183,1.687c1.074,1.5,1.711,3.517-.589,5.18l-8.212,2.483S497.041,538.877,497.9,535.781Z" transform="translate(-119.379 -118.465)" fill="url(#linear-gradient-2)"/>
    <path id="Tracé_168" data-name="Tracé 168" d="M561.246,608.5l7.957-2.491c2.228-1.671,1.591-3.684.581-5.188a4.154,4.154,0,0,0-3.04-1.679,3.763,3.763,0,0,1-1.48-.589,3.542,3.542,0,0,1-1.194-1.186,5.784,5.784,0,0,1-.8-3.063s-8.514-2.849-10.965-.422a6.485,6.485,0,0,0-1.1,1.488,12.73,12.73,0,0,0-1.313,5.506s-.541,2.713-1.369,5.817S561.246,608.5,561.246,608.5Z" transform="translate(-129.723 -184.08)" fill="#2d293d"/>
    <path id="Tracé_169" data-name="Tracé 169" d="M513.208,601.8l7.957-2.491c2.228-1.671,1.591-3.684.581-5.18a4.122,4.122,0,0,0-3.048-1.679,3.112,3.112,0,0,1-.883-.279,3.969,3.969,0,0,1-.589-.318c-2.156-1.289-2.021-4.209-2.021-4.209s-8.506-2.849-10.957-.422a6.282,6.282,0,0,0-.867,1.09,12.437,12.437,0,0,0-1.544,5.9s-.549,2.721-1.377,5.816S513.208,601.8,513.208,601.8Z" transform="translate(-119.903 -182.714)" fill="#2d293d"/>
    <path id="Tracé_170" data-name="Tracé 170" d="M553.008,593.878a6.484,6.484,0,0,0-1.1,1.488h0l12.843,1.989a5.785,5.785,0,0,1-.8-3.063S555.459,591.451,553.008,593.878Z" transform="translate(-130.421 -184.071)" opacity="0.1"/>
    <path id="Tracé_171" data-name="Tracé 171" d="M504.155,588.269l-.1,2.387c1.878,3.39,11.609,3.04,14.49,1.488a3.976,3.976,0,0,1-.589-.318c-2.148-1.265-2.013-4.185-2.013-4.185s-8.506-2.849-10.957-.422A6.287,6.287,0,0,0,504.155,588.269Z" transform="translate(-120.645 -182.707)" opacity="0.1"/>
    <path id="Tracé_172" data-name="Tracé 172" d="M502.655,542.907a21.176,21.176,0,0,1,1.408,3.35l-.334,8.657c2.053,3.7,13.527,2.936,15.118,1.018s3.453-7,1.735-7.957-2.976-5.387-2.976-5.387,1.846.509,4.941-2.88,2.514-11.211,2.037-13.1.318-8.108.318-8.108.056-4.392.987-5.777S529,503.289,529,503.289s.1-2.737,1.695-4.106,2.785-6.915,2.785-6.915a7.161,7.161,0,0,0,1.281-4.671c-.223-2.753,2.085-5.626,2.085-5.626l4.177-11.7,3.851-8.753,1.743,5.291s.08,12.079-.454,14.585-1.448,9.166-1.448,9.166,2.021,4.464.891,8.156-1.106,11.7-1.106,11.7-1.591,16.519-.8,17.863.589,4.631.589,4.631-4.87,9.477-3.493,10.845.8,4.973.8,4.973-3.063-.119-1.8,1.249,2.045,8.267,2.045,8.267l13.193,2.045a27.689,27.689,0,0,0,3.183-5.474c1.91-3.979-.183-3.636-1.934-4.138s-.589-1.591,1.544-2.793,1.042-4.241,1.042-4.241-2.976-5.5-1.862-5.9,1.52-7.957,1.52-7.957,2.53-8.9,2.077-11.339,2.069-8.156,2.069-8.156l1.034-6.875a18.978,18.978,0,0,0,2.912-12.946l.414-10.631s3.859-20.489,4.7-30.889c.533-6.652.8-15.763.931-21.444.072-3.183.1-5.3.1-5.3L525.6,415.46a38.615,38.615,0,0,1-1.13,7c-.581,2.586-1.472,5.92-2.817,10.082-3.867,11.936-2.124,21-2.124,21l-.151,15.246s-4.559,10.034-3.819,13.575a28.942,28.942,0,0,1,.637,6.366s-10.177,21.89-9.437,28.391-3.708,16.543-3.708,16.543S501.637,540.894,502.655,542.907Z" transform="translate(-120.283 -147.771)" fill="#3f3d56"/>
    <path id="Tracé_173" data-name="Tracé 173" d="M535.863,504.545,521.54,502.07S529.37,510.711,535.863,504.545Z" transform="translate(-124.217 -165.441)" opacity="0.05"/>
    <path id="Tracé_174" data-name="Tracé 174" d="M524.565,484.47s-.692,5.077,2.387,7.114C526.92,491.584,521.366,490.462,524.565,484.47Z" transform="translate(-124.632 -161.833)" opacity="0.1"/>
    <path id="Tracé_175" data-name="Tracé 175" d="M526.71,464.12s11.673,10.384,16.081,9.731S526.71,464.12,526.71,464.12Z" transform="translate(-125.273 -157.66)" opacity="0.1"/>
    <path id="Tracé_176" data-name="Tracé 176" d="M561.77,511.89s9.071,2.435,9.2,6.119S561.77,511.89,561.77,511.89Z" transform="translate(-132.436 -167.457)" opacity="0.1"/>
    <path id="Tracé_177" data-name="Tracé 177" d="M556.4,569.24s12.835,2.9,9.1,4.408a62.394,62.394,0,0,1-9.787,2.562S551.534,576.3,556.4,569.24Z" transform="translate(-130.857 -179.22)" opacity="0.05"/>
    <g id="Groupe_8" data-name="Groupe 8" transform="translate(381.987 274.1)" opacity="0.05">
      <path id="Tracé_178" data-name="Tracé 178" d="M571.017,577.72a2.546,2.546,0,0,0,1.249-1.83l.127.239s1.09,3-1.042,4.233l-.692.422c-.382-.088-.8-.159-1.186-.271C567.723,580,568.925,578.953,571.017,577.72Z" transform="translate(-515.825 -454.649)"/>
      <path id="Tracé_179" data-name="Tracé 179" d="M550.667,575.7c-.342-.342-.294-1.186-.04-2.26a6.088,6.088,0,0,1,.613,3.183A2.585,2.585,0,0,0,550.667,575.7Z" transform="translate(-512.105 -454.149)"/>
      <path id="Tracé_180" data-name="Tracé 180" d="M555.825,507.85a14.705,14.705,0,0,1,.716,4.058,16.481,16.481,0,0,0-.891-2.809S555.714,508.614,555.825,507.85Z" transform="translate(-513.173 -440.749)"/>
      <path id="Tracé_181" data-name="Tracé 181" d="M518.909,498.871a5.13,5.13,0,0,1-.072-1.2c.127.8.215,1.591.271,2.26C519.053,499.58,518.965,499.23,518.909,498.871Z" transform="translate(-505.65 -438.669)"/>
      <path id="Tracé_182" data-name="Tracé 182" d="M554.313,556.2a7.076,7.076,0,0,1-.239-2.451,8.236,8.236,0,0,1,.517,3.1A3.087,3.087,0,0,0,554.313,556.2Z" transform="translate(-512.846 -450.126)"/>
      <path id="Tracé_183" data-name="Tracé 183" d="M549.814,582.68a42.672,42.672,0,0,1,1.257,6.787l13.193,2.045a27.687,27.687,0,0,0,3.183-5.474c.167-.35.3-.668.414-.955.8.4,1.058,1.233-.08,3.6a27.637,27.637,0,0,1-3.183,5.482l-13.193-2.045s-.724-6.946-1.989-8.315C548.764,583.134,549.194,582.823,549.814,582.68Z" transform="translate(-511.833 -456.036)"/>
      <path id="Tracé_184" data-name="Tracé 184" d="M572.387,531.154s-.4,7.559-1.512,7.957h0c-.5-1.273-.8-2.475-.326-2.65,1.114-.4,1.512-7.957,1.512-7.957s2.538-8.9,2.085-11.339,2.069-8.148,2.069-8.148l1.034-6.875a19,19,0,0,0,2.912-12.954l.406-10.63s3.867-20.489,4.7-30.881c.541-6.66.8-15.763.939-21.444,0-1.026.04-1.941.048-2.713l.382.056s0,2.117-.1,5.3c-.127,5.681-.4,14.792-.931,21.444-.844,10.4-4.7,30.889-4.7,30.889l-.414,10.631a18.978,18.978,0,0,1-2.912,12.946l-1.034,6.875s-2.522,5.721-2.069,8.156S572.387,531.154,572.387,531.154Z" transform="translate(-516.168 -423.52)"/>
      <path id="Tracé_185" data-name="Tracé 185" d="M518.884,586.992a12.866,12.866,0,0,0,2.3-5.132c1.3,1.273-.438,5.96-1.965,7.774s-13.057,2.682-15.118-1.018l.08-2.085C507.044,589.578,517.356,588.8,518.884,586.992Z" transform="translate(-502.641 -455.869)"/>
      <path id="Tracé_186" data-name="Tracé 186" d="M502.325,571.91a22.194,22.194,0,0,1,1.408,3.35l-.064,1.536c-.223-.565-.549-1.329-1.011-2.236a6.548,6.548,0,0,1-.374-2.729Z" transform="translate(-502.266 -453.82)"/>
      <path id="Tracé_187" data-name="Tracé 187" d="M522.1,570.778a20.733,20.733,0,0,1-.979-2.65s1.846.509,4.933-2.88c2.26-2.467,2.562-7.281,2.387-10.448.477,1.886,1.058,9.7-2.037,13.1C524.366,570.117,522.886,570.658,522.1,570.778Z" transform="translate(-506.118 -450.34)"/>
      <path id="Tracé_188" data-name="Tracé 188" d="M530.5,529.3a57.528,57.528,0,0,0-.469,6.485,10.2,10.2,0,0,0-.191-1.026c-.477-1.878.318-8.108.318-8.108s.064-4.384.995-5.777,3.1-9.429,3.1-9.429.1-2.745,1.695-4.106,2.793-6.923,2.793-6.923a7.217,7.217,0,0,0,1.273-4.671c-.223-2.753,2.085-5.626,2.085-5.626l4.185-11.7,3.843-8.753,1.774,5.228v1.671l-1.432-4.249-3.827,8.753-4.177,11.7s-2.308,2.872-2.085,5.626a7.162,7.162,0,0,1-1.281,4.671s-1.2,5.57-2.785,6.915-1.695,4.106-1.695,4.106-2.18,8.044-3.111,9.429S530.5,529.3,530.5,529.3Z" transform="translate(-507.869 -432.948)"/>
    </g>
    <path id="Tracé_189" data-name="Tracé 189" d="M528.855,288.19l.668,4.034-.111,1.782-.088,1.313,4.551.645.549-.931h0c1.018-1.679,3.111-5.092,3.772-5.57.875-.684,2.809-11.753.971-11.14a4.775,4.775,0,0,0-2.634,2.212S527.5,281.172,528.855,288.19Z" transform="translate(-125.683 -119.546)" fill="#ffcdd3"/>
    <path id="Tracé_190" data-name="Tracé 190" d="M529.48,299.232l4.551.645.549-.931h0a4.018,4.018,0,0,0-5.013-1.026Z" transform="translate(-125.839 -123.47)" opacity="0.1"/>
    <path id="Tracé_191" data-name="Tracé 191" d="M527.92,301.458l5.976,1.591.167-.891.43-2.387a4.154,4.154,0,0,0-5.809-1.026l-.342,1.225Z" transform="translate(-125.52 -123.581)" fill="#dce6f2"/>
    <path id="Tracé_192" data-name="Tracé 192" d="M651.12,291.133l6.31,3.7.629-1.194c.66-1.257,1.647-3.183,1.926-3.843.422-1.05,3.183-2.292,3.183-2.292,6.986-6.183-.8-12.023-.8-12.023-3.923-8.713-9.1,2.554-9.1,2.554s-.883,6.008-.438,6.437.39,2.069.39,2.069a23.988,23.988,0,0,0-1.695,3.628A7.462,7.462,0,0,0,651.12,291.133Z" transform="translate(-150.69 -118.291)" fill="#ffcdd3"/>
    <path id="Tracé_193" data-name="Tracé 193" d="M651.12,295.756l6.31,3.7.629-1.194c-.883-.8-3.979-3.533-5.061-3.453a7.553,7.553,0,0,1-1.528,0C651.239,295.375,651.12,295.756,651.12,295.756Z" transform="translate(-150.69 -122.929)" opacity="0.1"/>
    <path id="Tracé_194" data-name="Tracé 194" d="M650.2,297.742l7.1,3.843.207-1.591.143-1.066s-4.058-3.756-5.3-3.668a6.532,6.532,0,0,1-1.886-.08l-.135,1.3Z" transform="translate(-150.502 -123.006)" fill="#dce6f2"/>
    <path id="Tracé_195" data-name="Tracé 195" d="M549.65,318.788s31.406,4.774,25.582,2.626c-4.05-1.5-5.57-4.162-5.817-7.074a16.5,16.5,0,0,1,1.456-7.249,31.233,31.233,0,0,1,3.04-5.57s-23.6-14.2-19.24-1.949a19.384,19.384,0,0,1,1.146,5.769,16.13,16.13,0,0,1-.843,5.753,17.29,17.29,0,0,1-5.323,7.694Z" transform="translate(-129.96 -122.891)" fill="#ffcdd3"/>
    <path id="Tracé_196" data-name="Tracé 196" d="M555.86,299.533a19.384,19.384,0,0,1,1.146,5.769c2.2,1.989,4.695,1.965,7.885,2.085,2.467.1,5.164.8,7.161-.31a31.229,31.229,0,0,1,3.04-5.57S551.468,287.287,555.86,299.533Z" transform="translate(-131.117 -122.88)" opacity="0.1"/>
    <circle id="Ellipse_11" data-name="Ellipse 11" cx="13.049" cy="13.049" r="13.049" transform="translate(421.592 159.268)" fill="#ffcdd3"/>
    <path id="Tracé_197" data-name="Tracé 197" d="M549.65,322.714s31.406,4.774,25.582,2.626c-4.05-1.5-5.57-4.161-5.817-7.074-1.5-1.759-4.615-3.111-6.612-3.843a9.477,9.477,0,0,0-5.713-.31,8.049,8.049,0,0,0-2.117.883A17.29,17.29,0,0,1,549.65,322.714Z" transform="translate(-129.96 -126.829)" opacity="0.1"/>
    <path id="Tracé_198" data-name="Tracé 198" d="M527.92,301.923l5.976,1.591.167-.891a5.331,5.331,0,0,0-5.721-2.2Z" transform="translate(-125.52 -124.047)" opacity="0.1"/>
    <path id="Tracé_199" data-name="Tracé 199" d="M650.2,298.077l7.1,3.843.207-1.591a53.425,53.425,0,0,0-7.161-3.509Z" transform="translate(-150.502 -123.342)" opacity="0.1"/>
    <path id="Tracé_200" data-name="Tracé 200" d="M530.12,422.472c12.142,2.387,29.441,5.57,32.218,4.846,2.315-.613,9.628-.255,15.978.207.072-3.183.1-5.3.1-5.3L531.25,415.47A38.631,38.631,0,0,1,530.12,422.472Z" transform="translate(-125.97 -147.682)" opacity="0.1"/>
    <path id="Tracé_201" data-name="Tracé 201" d="M515,395.029s39.96,8.45,44.328,7.3,26.473,1.13,26.473,1.13c9.716,7.066,5.936-2.96,5.936-2.96a24.148,24.148,0,0,0,0-9.326,57.19,57.19,0,0,1-1.281-9.381s.47-6.565-.676-8.148-2.148-12.6-2.148-12.6-.8-7.5-.637-9.135-.088-6.262-.088-6.262l-1.13-7.726c8.259-.8,33.841-15.166,33.841-15.166,1.408-5.1,11.188-16.805,11.188-16.805a12.421,12.421,0,0,1,.875-2.928c.732-1.727-9-5.57-9-5.57s-7.694,8.7-9.318,11.052-7.066,6.644-7.066,6.644a5.371,5.371,0,0,0-2.387.223h-.127a19.535,19.535,0,0,0-5.021,2.634,9.549,9.549,0,0,0-6.779,2.26s-4.472-.8-5.268-.1-4.6-.175-4.6-.175-3.525-8.259-6.135-6-13.312,1.743-13.312,1.743c-1.345-1.949-4.774-3.445-6.907-4.225a9.477,9.477,0,0,0-5.713-.318,7.288,7.288,0,0,0-2.3,1.01l-6.732,6.1s-1.774-2.483-1.536-3.024-2.148-1.074-2.148-1.074-3.183-1.106-4.337-1.48-2.347.883-2.451.995a12.8,12.8,0,0,0,.732-4.774,5.5,5.5,0,0,1,1.464-3.891c-3.469-9.548-12.437-2.021-12.437-2.021s-1.186,5.116-.382,7.122-1.114,6.1-.939,7.209-.549,2.944-.629,5.029a29.859,29.859,0,0,0,1.456,7.846c.589,1.774,5.7,5.928,5.7,5.928s.088,6.262,2.252,9.97.263,16.033.263,16.033-2.562,9.548-5.427,12.524S515,395.029,515,395.029Z" transform="translate(-122.881 -123.511)" fill="#3f3d56"/>
    <path id="Tracé_202" data-name="Tracé 202" d="M592.079,330.6s1.345-3.573,2.451-3.859a25.379,25.379,0,0,0,3.239-1.3l-.653-1.377s-4.161.971-4.87,2.156S592.079,330.6,592.079,330.6Z" transform="translate(-138.587 -128.93)" opacity="0.1"/>
    <path id="Tracé_203" data-name="Tracé 203" d="M620.2,322.6c.183,1.1,9.9,2.467,9.9,2.467l-4.774-5.14H625.2A19.536,19.536,0,0,0,620.2,322.6Z" transform="translate(-144.373 -128.082)" opacity="0.1"/>
    <path id="Tracé_204" data-name="Tracé 204" d="M579.249,369.6c.111-.119-25.8,30.125-44.289,11.363C534.992,380.963,565.109,386.238,579.249,369.6Z" transform="translate(-126.958 -138.275)" opacity="0.1"/>
    <path id="Tracé_205" data-name="Tracé 205" d="M595.129,349.94a47.688,47.688,0,0,1-6.111,9.6,38.543,38.543,0,0,1-9.318,8.323S594.8,351.961,595.129,349.94Z" transform="translate(-136.099 -134.242)" opacity="0.1"/>
    <path id="Tracé_206" data-name="Tracé 206" d="M603.593,328.58s-2.88,10.551-9.373,13.925Z" transform="translate(-139.065 -129.859)" opacity="0.1"/>
    <path id="Tracé_207" data-name="Tracé 207" d="M608.465,330.119c.072-.2,1.87,8.506-8.7,12.874C599.76,342.994,604.232,341.665,608.465,330.119Z" transform="translate(-140.197 -130.174)" opacity="0.1"/>
    <path id="Tracé_208" data-name="Tracé 208" d="M528.175,318c.167,0-5.26,3.183-6.755,4.679C521.42,322.691,525.064,317.67,528.175,318Z" transform="translate(-124.192 -127.682)" opacity="0.1"/>
    <path id="Tracé_209" data-name="Tracé 209" d="M567.125,302.748a2.73,2.73,0,0,1-1.082,1.719,2.641,2.641,0,0,1-1.241.231c-3.978.1-8.132.111-11.753-1.591a4.44,4.44,0,0,1-1.743-1.257,7.289,7.289,0,0,1-.931-2.92,42.981,42.981,0,0,0-2.2-5.634,18.619,18.619,0,0,1-.907-9.954,6.74,6.74,0,0,1,1.106-2.88c1.114-1.464,3.055-2,4.5-3.143s2.387-2.944,4.074-3.78a7.28,7.28,0,0,1,4.933-.247,25.774,25.774,0,0,1,9.055,3.8,4.629,4.629,0,0,0,3.032,1.162,4.217,4.217,0,0,0,2.315-1.647,11.992,11.992,0,0,1,.8,5.721,2.6,2.6,0,0,0,0,.859,2.673,2.673,0,0,0,.573.923c.939,1.178,1.48,3.008.469,4.114-.438.493-1.1.74-1.528,1.233-.8.883-.581,2.212-.6,3.39a1.742,1.742,0,0,1-.334,1.146,1.7,1.7,0,0,1-1.591.318,4.52,4.52,0,0,0-1.711-.231,2.9,2.9,0,0,0-1.536,1.09C568.82,297.425,568.008,299.963,567.125,302.748Z" transform="translate(-129.412 -118.46)" fill="#3f3d56"/>
    <g id="Groupe_9" data-name="Groupe 9" transform="translate(421.369 157.98)" opacity="0.1">
      <path id="Tracé_210" data-name="Tracé 210" d="M551.879,303.83a4.415,4.415,0,0,0,1.751,1.257c3.62,1.671,7.766,1.655,11.753,1.591a2.848,2.848,0,0,0,1.241-.231,2.729,2.729,0,0,0,1.082-1.727c.883-2.777,1.695-5.315,3.62-7.583a2.873,2.873,0,0,1,1.536-1.09,4.52,4.52,0,0,1,1.711.231,1.679,1.679,0,0,0,1.591-.326,1.742,1.742,0,0,0,.334-1.146c0-1.17-.167-2.5.6-3.382.43-.5,1.09-.748,1.536-1.233a2.554,2.554,0,0,0,.35-2.6c.652,1.13.907,2.562.056,3.493-.446.485-1.106.74-1.536,1.233-.8.883-.573,2.212-.6,3.39a1.742,1.742,0,0,1-.334,1.146,1.7,1.7,0,0,1-1.591.318,4.559,4.559,0,0,0-1.711-.231,2.872,2.872,0,0,0-1.536,1.09c-1.926,2.268-2.745,4.774-3.62,7.591a2.73,2.73,0,0,1-1.082,1.719,2.641,2.641,0,0,1-1.241.231c-3.979.1-8.132.111-11.753-1.591a4.415,4.415,0,0,1-1.751-1.257,3.547,3.547,0,0,1-.525-1.074Z" transform="translate(-551.76 -279.426)"/>
      <path id="Tracé_211" data-name="Tracé 211" d="M584.524,283.712a1.887,1.887,0,0,1-.374-.676,2.387,2.387,0,0,1,0-.851,12.134,12.134,0,0,0-.43-4.774l.072-.08a12.087,12.087,0,0,1,.756,5.721,4.21,4.21,0,0,0-.024.66Z" transform="translate(-558.289 -277.33)"/>
    </g>
    <path id="Tracé_212" data-name="Tracé 212" d="M570.292,320.189s-16.383,1.528-17.752-.979" transform="translate(-130.55 -127.933)" opacity="0.1"/>
    <path id="Tracé_213" data-name="Tracé 213" d="M532.5,310.428s-9.055-.334-11.14,2.984" transform="translate(-124.18 -126.13)" opacity="0.1"/>
  </g>
</svg>
